<?xml version="1.0" standalone="no"?>
<!DOCTYPE svg PUBLIC "-//W3C//DTD SVG 20010904//EN"
 "http://www.w3.org/TR/2001/REC-SVG-20010904/DTD/svg10.dtd">
<svg version="1.0" xmlns="http://www.w3.org/2000/svg"
 width="698.000000pt" height="698.000000pt" viewBox="0 0 698.000000 698.000000"
 preserveAspectRatio="xMidYMid meet">
<metadata>
Created by potrace 1.14, written by Peter Selinger 2001-2017
</metadata>
<g transform="translate(0.000000,698.000000) scale(0.100000,-0.100000)"
fill="#000000" stroke="none">
<path d="M4080 6859 c0 -17 -9 -42 -20 -56 -24 -31 -27 -73 -5 -73 8 0 15 -7
15 -15 0 -21 -23 -19 -43 3 -12 14 -14 21 -6 29 13 13 4 47 -10 38 -20 -12
-22 18 -2 39 23 24 27 41 12 51 -6 3 -23 -14 -39 -37 -37 -54 -44 -138 -12
-138 27 0 25 -14 -9 -52 l-28 -32 -22 60 c-12 32 -29 65 -38 72 -13 9 -14 15
-5 24 9 9 12 9 12 0 0 -7 8 -12 19 -12 18 0 31 39 31 98 0 28 -30 30 -37 2 -3
-11 -11 -20 -17 -20 -6 0 -17 -13 -23 -30 -14 -38 -37 -40 -31 -2 3 15 7 34 9
42 3 11 -5 16 -27 18 l-31 3 5 -50 c4 -42 1 -52 -13 -58 -13 -4 -25 2 -42 23
-77 95 -86 99 -96 45 -4 -17 -18 -37 -31 -46 -24 -16 -28 -16 -68 7 -27 15
-43 30 -43 42 0 32 -25 30 -38 -3 -12 -33 -25 -39 -45 -19 -19 19 -26 1 -30
-73 l-4 -71 -19 29 c-14 21 -18 38 -13 66 6 37 -10 54 -22 22 -4 -8 -12 -15
-19 -15 -21 0 -26 -16 -15 -44 12 -34 0 -33 -33 2 -17 18 -26 37 -25 52 5 36
-20 35 -31 -2 -5 -18 -10 -25 -10 -16 -2 26 -18 30 -47 11 -22 -14 -28 -15
-32 -4 -2 7 -13 22 -24 33 -19 19 -21 19 -39 2 -21 -19 -26 -44 -8 -44 5 0 7
-4 4 -10 -9 -15 -45 -12 -51 5 -8 21 -24 19 -24 -2 -1 -14 -5 -12 -21 10 -11
15 -25 27 -30 27 -18 0 -8 -42 16 -66 31 -31 31 -34 -2 -34 -20 0 -38 -11 -60
-37 -32 -37 -33 -37 -48 -19 -20 26 -31 13 -17 -19 17 -36 15 -75 -3 -82 -23
-8 -31 5 -16 28 16 26 6 37 -19 21 -26 -16 -27 -16 -33 9 -7 25 -27 16 -27
-11 0 -19 -19 -20 -92 -5 -30 5 -31 -14 -4 -56 39 -59 81 -81 137 -74 40 6 51
2 96 -28 37 -25 58 -33 80 -30 29 5 30 3 36 -37 7 -51 27 -74 82 -96 30 -11
45 -23 49 -40 4 -14 22 -32 46 -44 22 -11 40 -23 40 -26 0 -2 -10 -18 -22 -34
-15 -21 -19 -33 -11 -41 12 -12 43 13 43 35 0 17 112 45 117 29 2 -6 19 -32
38 -58 19 -28 31 -54 28 -64 -12 -32 -47 -61 -82 -67 -20 -3 -56 -12 -80 -20
-87 -28 -62 8 32 46 40 17 63 32 65 44 3 15 0 17 -14 12 -10 -4 -21 -1 -25 5
-5 9 -18 3 -44 -19 -19 -18 -47 -32 -60 -32 -21 0 -25 5 -25 29 0 21 -6 32
-21 36 -29 9 -58 61 -65 118 -4 26 -10 47 -15 47 -17 0 -49 -162 -49 -253 0
-51 -22 -89 -41 -70 -10 10 -9 17 6 33 18 19 18 21 0 40 -11 13 -25 18 -37 14
-14 -4 -18 0 -18 21 0 25 14 42 75 93 22 18 25 25 15 37 -18 21 -34 19 -68
-10 l-30 -25 -10 47 c-9 41 -8 52 9 79 10 17 19 34 19 38 0 13 -27 5 -42 -11
-23 -27 -28 -63 -18 -124 7 -45 6 -56 -8 -66 -27 -22 -34 -15 -27 26 7 44 -4
58 -35 41 -19 -10 -20 -10 -8 9 10 16 10 23 0 33 -6 6 -12 22 -12 34 0 34 -10
54 -27 54 -11 0 -14 -6 -9 -22 19 -66 18 -76 -2 -82 -11 -4 -23 -14 -26 -22
-3 -8 -10 -13 -15 -9 -19 11 -22 -16 -5 -51 l17 -35 -39 -40 c-21 -22 -48 -39
-60 -39 l-22 0 19 50 c10 28 19 65 19 83 0 45 12 59 46 55 29 -3 29 -3 32 56
4 85 -2 96 -38 61 -22 -21 -27 -32 -19 -41 13 -16 4 -34 -16 -34 -9 0 -14 9
-12 23 2 20 -2 22 -41 19 -42 -4 -42 -4 -32 23 5 14 10 28 10 31 0 10 -25 3
-42 -13 -17 -15 -18 -15 -18 12 0 20 -4 26 -15 21 -25 -9 -45 5 -45 31 0 23
-3 24 -32 18 -43 -9 -45 -12 -29 -36 14 -24 7 -39 -11 -21 -13 13 -48 16 -48
5 0 -5 14 -16 30 -25 31 -17 40 -38 18 -38 -7 0 -27 17 -45 37 -27 32 -32 35
-33 17 0 -25 -29 -68 -30 -44 0 9 5 21 12 28 9 9 8 13 -5 18 -31 11 -50 0 -52
-32 -1 -17 -10 -43 -20 -57 -16 -26 -16 -27 0 -27 10 0 24 8 31 18 12 15 13
14 14 -14 0 -67 -52 -83 -69 -20 -4 17 -13 30 -19 29 -7 -2 -19 11 -27 27 -22
43 -39 39 -30 -7 4 -21 4 -35 0 -31 -4 4 -10 22 -14 39 -7 34 -31 53 -31 25 0
-23 -18 -20 -52 9 -16 14 -34 25 -39 25 -17 0 -9 -32 17 -62 14 -17 23 -37 20
-44 -3 -9 2 -14 13 -14 11 0 22 6 24 13 3 6 6 1 6 -13 1 -54 -31 -63 -49 -14
-6 15 -18 24 -30 24 -12 0 -30 5 -41 10 -11 6 -24 8 -29 5 -16 -10 0 -32 41
-59 34 -23 38 -29 29 -47 -9 -16 -6 -28 19 -66 17 -26 29 -48 26 -51 -2 -3
-30 21 -61 52 -31 31 -59 54 -62 51 -3 -3 -14 2 -24 12 -17 15 -18 15 -18 0 0
-10 -4 -17 -10 -17 -19 0 -10 42 10 47 24 6 27 31 4 40 -21 8 -84 -28 -84 -48
0 -26 -26 -41 -64 -38 -19 2 -38 0 -42 -4 -4 -4 -15 0 -25 9 -20 18 -49 13
-49 -8 0 -7 10 -18 22 -23 31 -14 46 -41 30 -57 -10 -10 -17 -10 -32 0 -11 6
-27 12 -37 12 -9 0 -31 14 -49 31 l-32 31 -11 -35 c-10 -30 -47 -67 -66 -67
-3 0 -10 12 -15 26 -13 34 -33 26 -41 -17 -4 -19 -7 -26 -8 -16 -2 34 -30 18
-33 -20 l-3 -38 -52 -3 c-55 -3 -68 -17 -38 -42 12 -10 24 -11 53 -2 20 6 40
8 44 4 4 -4 -2 -27 -13 -51 -15 -34 -22 -42 -31 -33 -16 16 -38 15 -38 -1 0
-24 34 -46 87 -57 28 -6 59 -20 68 -30 16 -18 19 -18 42 -3 l25 16 -7 -35 c-5
-28 -3 -37 11 -42 20 -8 34 9 34 42 0 22 3 23 43 17 23 -3 50 -9 60 -11 11 -4
17 0 17 10 0 13 4 14 25 4 32 -14 32 -28 1 -28 -39 0 -38 -15 2 -41 35 -23 37
-27 34 -69 -3 -38 1 -49 22 -69 30 -29 35 -57 9 -46 -21 9 -37 9 -76 -1 -24
-6 -29 -3 -42 30 -15 35 -18 36 -50 30 l-34 -6 -16 56 c-16 54 -35 83 -35 52
0 -13 -4 -12 -20 4 -11 11 -20 26 -20 34 0 24 -21 30 -27 7 -8 -33 -20 -25
-27 19 -4 26 -11 40 -21 40 -12 0 -15 -17 -15 -90 0 -83 -2 -90 -20 -90 -13 0
-22 9 -26 28 -10 40 -14 44 -30 31 -22 -18 -17 -45 15 -81 27 -32 28 -35 16
-66 -17 -40 -28 -40 -54 -3 -15 21 -27 28 -44 25 l-22 -5 22 12 c13 7 23 20
23 31 0 16 -3 16 -20 6 -34 -22 -35 1 0 37 25 26 31 38 23 46 -18 18 -40 3
-64 -43 -21 -40 -22 -42 -30 -20 -11 30 -29 19 -29 -19 0 -24 -4 -29 -25 -29
-18 0 -23 4 -19 15 9 23 -33 19 -46 -5 -16 -29 -32 -25 -18 5 8 18 8 29 1 36
-15 15 -33 3 -33 -21 0 -12 -8 -20 -22 -22 -13 -2 -24 -10 -26 -19 -2 -12 11
-19 50 -27 77 -18 103 -39 141 -113 32 -61 33 -68 20 -93 -17 -32 -35 -30 -39
5 -9 88 -18 140 -27 146 -14 8 -25 -15 -19 -43 3 -17 0 -24 -12 -24 -19 0 -22
-26 -3 -33 6 -2 -9 -7 -34 -11 -50 -7 -99 6 -99 26 0 7 13 20 29 30 25 14 30
14 35 2 3 -8 12 -14 21 -14 18 0 18 -1 0 44 -15 36 -28 45 -40 27 -3 -5 -19
-12 -36 -16 -24 -5 -36 -2 -55 16 -21 19 -24 20 -30 6 -4 -10 6 -37 26 -67 17
-27 29 -54 25 -60 -11 -18 -35 -11 -47 15 -14 31 -26 32 -37 3 -5 -14 -10 -17
-15 -10 -14 24 -36 13 -36 -18 l0 -30 67 0 c70 0 180 -16 202 -29 10 -7 10
-13 2 -30 -14 -26 -26 -26 -58 -1 -33 25 -65 25 -88 0 -22 -25 -12 -39 16 -22
16 10 23 10 35 -3 9 -8 21 -15 27 -16 7 0 2 -4 -10 -9 -30 -12 -29 -28 1 -36
32 -8 57 7 95 55 l32 40 42 -19 c23 -11 42 -24 41 -30 -2 -24 -5 -27 -29 -38
-14 -6 -25 -18 -25 -27 0 -8 -4 -15 -10 -15 -5 0 -10 -11 -10 -25 0 -30 20
-33 27 -5 5 20 46 33 88 27 15 -1 19 3 17 19 -2 15 4 23 18 27 15 4 28 -5 52
-34 23 -29 39 -39 60 -39 37 0 88 -26 88 -45 0 -7 -5 -26 -11 -41 -5 -16 -7
-39 -4 -52 5 -20 10 -22 34 -17 19 4 43 -2 81 -22 37 -19 72 -28 119 -31 42
-3 73 -10 85 -21 13 -11 34 -15 74 -14 76 4 90 -2 108 -46 14 -35 19 -38 78
-51 l64 -13 32 -94 c36 -104 65 -147 115 -167 27 -12 34 -22 48 -73 10 -33 17
-69 17 -81 0 -13 6 -22 15 -22 13 0 15 -12 13 -72 l-3 -73 26 0 c24 1 26 -2
18 -23 -12 -30 1 -78 36 -137 25 -44 33 -49 67 -46 9 1 24 -11 33 -26 9 -15
31 -39 50 -53 22 -16 50 -59 83 -125 43 -86 50 -111 55 -176 6 -85 40 -168 81
-194 13 -9 27 -28 31 -43 3 -15 18 -53 32 -85 l26 -57 -36 -78 c-19 -42 -38
-87 -42 -99 -3 -13 -13 -23 -22 -23 -11 0 -14 -6 -9 -22 3 -13 6 -48 6 -78 1
-48 2 -53 14 -37 8 10 23 57 35 105 24 95 64 192 80 192 12 0 89 -87 107 -123
14 -25 13 -30 -5 -56 -31 -43 -50 -55 -82 -53 -32 3 -35 -4 -15 -30 20 -27 44
-22 82 20 l35 37 -7 -37 c-5 -30 -3 -39 10 -44 9 -3 16 -13 16 -21 0 -10 7
-14 20 -10 25 6 27 -18 4 -71 -19 -47 -58 -88 -107 -114 -51 -26 -58 -16 -19
25 29 30 41 57 26 57 -4 0 -29 -14 -56 -30 -53 -33 -73 -31 -64 6 8 32 -11 31
-26 -1 -10 -22 -16 -25 -40 -20 -21 5 -28 3 -28 -9 0 -19 -38 -46 -65 -46 -19
0 -19 1 3 18 21 16 87 170 77 180 -7 8 -34 -18 -40 -39 -4 -10 -11 -19 -16
-19 -15 0 -11 36 11 92 22 60 24 68 11 68 -12 0 -45 -57 -60 -103 -10 -29 -9
-44 3 -82 21 -59 21 -58 -12 -77 -43 -26 -60 -9 -38 37 23 48 25 148 4 172 -9
10 -21 35 -27 55 -10 31 -10 41 3 61 15 22 13 37 -6 37 -5 0 -13 -10 -18 -22
-9 -22 -9 -22 -9 3 -1 30 -25 57 -36 39 -4 -6 -4 -27 -1 -48 5 -34 3 -39 -27
-57 -44 -28 -45 -53 -2 -95 19 -18 35 -37 35 -42 0 -4 -18 -12 -41 -18 -22 -6
-47 -14 -55 -17 -8 -3 -14 1 -14 11 0 28 -18 17 -25 -14 -10 -47 -35 -38 -35
13 0 84 22 114 42 57 18 -53 77 -51 78 3 0 19 -26 24 -32 6 -6 -19 -78 88 -78
115 0 27 15 42 25 26 3 -5 10 -10 16 -10 16 0 -2 84 -22 100 -15 12 -17 18 -8
27 14 14 5 43 -14 43 -30 0 -37 -24 -26 -87 8 -48 7 -90 -5 -192 -25 -206 -21
-228 31 -179 17 16 26 19 35 10 8 -8 17 -6 36 8 42 33 52 26 52 -35 0 -50 -2
-56 -30 -70 -16 -8 -41 -15 -56 -15 -21 0 -25 4 -19 18 18 46 -2 53 -30 10
-26 -41 -51 -56 -66 -41 -9 9 -9 16 0 27 14 16 7 36 -12 35 -7 0 -28 -20 -47
-44 -36 -45 -73 -58 -84 -29 -13 33 -6 73 14 84 24 13 29 66 6 57 -10 -4 -16
2 -18 16 -4 32 -22 23 -28 -15 -7 -48 -41 -50 -68 -4 -23 39 -48 49 -39 16 4
-16 0 -20 -20 -20 -19 0 -24 -4 -21 -22 5 -35 -21 -34 -28 2 -9 41 -38 37 -42
-5 -2 -25 3 -34 28 -48 16 -10 37 -31 45 -48 13 -23 22 -29 50 -29 52 0 130
-84 96 -104 -4 -3 -16 3 -26 14 -10 11 -29 20 -42 20 -18 0 -23 5 -23 25 0 28
-15 34 -24 9 -18 -48 -2 -74 47 -74 14 0 30 -13 45 -35 28 -44 28 -55 0 -48
-19 5 -21 3 -10 -8 17 -18 15 -29 -9 -86 l-21 -48 -18 23 c-25 30 -34 28 -26
-8 5 -28 4 -30 -13 -20 -25 13 -61 59 -61 76 0 19 44 18 60 -1 15 -19 30 -19
30 -2 0 24 -36 47 -73 47 -31 0 -38 4 -43 25 -8 31 -34 33 -34 3 -1 -21 -2
-21 -28 10 -32 38 -42 40 -42 10 0 -12 18 -39 43 -62 23 -23 55 -60 71 -83 29
-43 93 -83 134 -83 15 0 22 -6 22 -18 0 -10 16 -33 35 -52 26 -25 35 -42 35
-66 0 -39 4 -40 118 -50 78 -6 84 -5 107 16 l25 23 0 -26 c0 -36 30 -51 76
-38 19 5 41 8 49 5 21 -9 30 18 10 32 -12 9 -24 10 -42 3 -61 -23 -84 4 -43
49 16 17 32 22 68 22 26 0 82 7 125 15 100 19 97 20 97 -11 0 -23 3 -26 30
-22 28 4 31 1 69 -77 30 -60 47 -83 67 -90 25 -10 26 -14 29 -93 2 -58 10 -95
24 -125 17 -35 19 -49 11 -77 -15 -50 -12 -226 5 -365 8 -65 15 -161 15 -212
0 -50 4 -94 8 -97 5 -3 7 -40 4 -83 -2 -43 3 -141 12 -218 18 -164 14 -204
-29 -265 -44 -62 -51 -87 -29 -111 25 -27 40 -24 50 13 11 37 30 47 38 20 4
-10 15 -28 26 -40 17 -18 25 -20 47 -11 18 7 30 6 37 -1 19 -19 44 -11 49 17
3 16 9 41 13 57 6 25 4 28 -10 23 -9 -4 -16 -2 -16 2 0 8 23 21 36 21 2 0 4
-13 4 -29 0 -62 26 -80 54 -39 16 22 16 22 16 -9 0 -28 3 -31 36 -35 30 -4 38
-1 42 15 4 16 7 14 18 -13 20 -47 47 -37 56 20 12 83 8 155 -13 225 -13 43
-24 117 -28 190 -4 66 -12 129 -18 140 -6 11 -16 63 -22 117 -6 53 -23 133
-37 179 -23 74 -26 93 -19 171 4 52 3 88 -3 88 -20 0 -30 47 -21 96 6 27 7 74
4 104 -3 32 1 90 10 140 8 47 15 99 15 116 0 20 9 39 25 54 18 17 25 34 25 59
0 22 10 51 25 73 14 20 25 47 25 60 0 13 23 59 51 102 103 161 178 338 214
501 10 48 26 89 39 104 31 35 98 79 126 83 27 3 70 67 70 104 0 26 -27 39 -46
23 -17 -14 -18 -3 -4 38 7 20 25 37 54 51 24 12 48 22 54 22 6 0 20 16 32 35
21 34 52 46 65 24 4 -6 19 -7 36 -4 22 5 29 3 29 -8 0 -30 30 -47 83 -47 55 0
137 31 137 51 0 8 -13 10 -42 5 -132 -21 -127 -22 -139 13 -6 17 -14 31 -17
31 -4 0 -13 4 -20 9 -11 7 -12 12 -1 29 10 17 10 23 0 36 -23 27 -41 19 -41
-18 0 -22 -6 -36 -16 -40 -25 -10 -27 -8 -20 27 12 56 11 90 -1 94 -7 3 -13
-1 -13 -8 0 -6 -14 -34 -30 -61 -19 -30 -29 -60 -28 -76 3 -22 -6 -32 -47 -60
l-50 -34 -3 25 c-2 14 11 60 27 102 17 42 31 85 31 96 0 11 13 31 28 44 16 13
37 46 47 72 23 60 22 60 39 38 13 -18 17 -16 69 37 l55 57 13 -30 c11 -28 15
-30 48 -24 40 8 46 11 113 72 53 48 69 54 60 21 -5 -19 -1 -18 35 11 42 34
106 51 117 32 9 -15 36 -14 36 1 0 6 -8 20 -17 31 -17 18 -17 19 0 29 34 19
87 70 87 84 0 17 -26 4 -104 -51 -30 -22 -60 -35 -79 -35 l-31 0 46 48 c51 51
66 89 34 84 -10 -2 -15 1 -12 7 4 5 2 12 -4 16 -5 3 -10 -2 -10 -13 0 -17 -28
-49 -57 -66 -11 -6 -88 39 -88 52 1 4 10 21 20 39 18 29 24 32 55 27 45 -7
112 10 134 35 22 24 7 34 -32 20 -16 -5 -52 -9 -78 -7 l-49 3 51 37 c47 35 70
68 56 82 -3 3 -22 -10 -44 -29 -52 -48 -73 -46 -87 8 -13 50 -27 74 -37 64 -4
-4 0 -38 10 -75 27 -104 21 -130 -38 -170 -50 -33 -71 -38 -96 -22 -13 8 -13
13 -2 31 9 14 10 25 4 31 -7 7 -7 16 0 28 7 10 8 25 3 36 -7 18 -8 18 -12 2
-3 -10 -8 -18 -12 -18 -9 0 -31 69 -31 97 0 10 -7 28 -16 39 -14 18 -15 14
-10 -41 3 -33 8 -72 12 -87 5 -24 3 -28 -16 -28 -23 0 -23 -8 -5 -52 4 -11 0
-18 -13 -22 -23 -8 -62 -40 -62 -51 0 -4 7 -13 16 -20 11 -8 14 -19 10 -33 -6
-18 -11 -20 -26 -12 -10 6 -29 10 -42 10 -14 0 -33 13 -51 35 -32 41 -47 44
-47 12 0 -38 26 -63 90 -87 l60 -22 0 -42 c0 -22 -3 -58 -6 -78 -6 -33 -10
-38 -33 -38 -20 0 -31 -10 -49 -41 -13 -22 -34 -45 -47 -51 -17 -8 -26 -22
-30 -47 -8 -48 -18 -65 -41 -69 -10 -2 -25 -11 -31 -20 -17 -21 -16 -103 1
-127 11 -16 11 -25 -7 -68 -24 -58 -55 -82 -94 -72 -21 5 -31 1 -46 -17 l-18
-23 6 35 c4 19 19 56 35 82 25 42 27 51 18 82 -9 28 -8 48 5 96 10 33 17 67
17 77 0 9 12 34 26 55 36 51 47 114 28 153 -8 16 -20 76 -25 134 -6 57 -17
120 -24 141 -19 54 -3 114 45 165 21 22 54 66 74 98 39 62 86 98 117 90 11 -3
27 1 37 10 9 8 27 18 39 21 13 4 46 27 75 51 39 34 57 43 75 39 17 -5 24 -1
29 12 20 63 33 80 88 120 42 31 62 40 67 32 6 -9 13 -9 31 -1 39 19 57 23 63
13 4 -6 17 -10 29 -10 37 0 128 32 133 48 3 7 -4 26 -16 42 -22 30 -27 45 -12
36 11 -7 44 30 72 83 13 24 30 53 36 65 7 11 13 31 13 44 0 13 12 39 26 58 24
31 31 34 81 34 66 0 136 33 181 85 18 20 32 40 32 44 0 5 17 16 38 24 53 21
77 50 63 76 -20 37 -12 69 27 111 22 22 46 40 55 40 21 0 57 -35 57 -55 0 -20
39 -19 47 0 3 9 -2 22 -13 30 -18 13 -17 15 18 29 47 20 95 20 114 2 11 -11
22 -12 46 -5 55 15 61 13 42 -20 -26 -44 -14 -61 46 -61 43 0 50 -3 50 -20 0
-16 7 -20 38 -20 20 0 43 4 51 9 18 12 5 31 -22 31 -12 0 -28 9 -34 19 -7 11
-25 22 -40 24 -15 2 10 2 57 0 76 -4 90 -2 125 18 22 13 52 36 67 51 32 34 41
35 82 3 21 -16 46 -25 69 -25 21 0 37 -4 37 -9 0 -16 41 -24 54 -11 8 10 8 14
-1 17 -23 8 -14 21 20 28 59 12 68 17 65 33 -1 9 1 23 5 30 8 11 3 15 -40 28
-19 5 -6 27 33 53 23 16 32 27 25 34 -14 14 -44 -1 -99 -46 -48 -40 -102 -61
-147 -55 -29 3 -29 4 30 43 42 28 75 41 110 45 35 3 50 9 50 20 0 10 -10 15
-27 15 -31 -1 -36 16 -13 35 10 9 15 9 15 1 0 -6 16 -11 36 -11 40 0 44 23 5
28 -21 3 -22 5 -6 22 25 28 10 43 -25 25 -16 -8 -36 -15 -45 -15 -13 0 -11 7
10 32 59 70 55 124 -5 59 -21 -23 -46 -41 -55 -41 -16 0 -17 2 -3 18 9 9 23
32 32 50 12 22 24 32 40 32 13 0 29 6 35 14 10 11 6 17 -17 29 -25 12 -33 12
-53 1 -32 -18 -49 -17 -49 1 0 8 -4 15 -10 15 -13 0 -32 75 -28 113 1 21 -2
31 -10 30 -11 -3 -16 11 -24 62 -3 12 -11 19 -22 18 -10 0 -29 11 -41 25 -21
25 -26 26 -61 16 -22 -6 -47 -15 -57 -19 -15 -6 -17 -4 -12 17 4 16 1 29 -10
38 -13 11 -18 8 -32 -29 -9 -22 -22 -41 -28 -41 -7 0 -18 19 -24 43 -7 24 -26
58 -42 75 -29 30 -32 31 -89 25 -52 -5 -60 -3 -67 12 -5 14 5 29 41 61 47 41
55 71 15 59 -11 -4 -26 0 -35 9 -18 18 -38 11 -30 -11 9 -23 -21 -83 -41 -83
-16 0 -18 6 -15 38 2 20 8 47 14 60 10 18 8 26 -5 39 -15 15 -17 16 -17 1 0
-10 -16 -19 -47 -27 -53 -14 -56 -15 -104 -50 -28 -20 -26 -15 14 25 52 55 56
64 29 64 -11 0 -37 -20 -60 -45 -42 -46 -62 -56 -62 -31 0 31 15 48 61 72 34
17 49 30 49 44 0 29 -26 25 -71 -11 -44 -35 -46 -34 -22 16 11 22 13 39 7 45
-13 13 -88 -14 -92 -33 -4 -20 -32 -31 -46 -17 -5 5 -18 10 -28 10 -30 0 -20
19 20 37 20 10 45 24 55 32 15 12 17 12 17 -3 0 -25 31 -16 41 12 7 17 5 24
-8 29 -10 4 -19 1 -21 -6 -3 -9 -8 -9 -17 -1 -10 8 -22 6 -47 -10 -32 -19 -78
-26 -91 -14 -4 4 6 19 21 34 19 20 45 31 92 40 95 18 119 43 53 53 -25 4 -45
2 -60 -8 -12 -8 -30 -15 -40 -15 -14 0 -12 5 10 28 31 33 29 40 -12 34 -25 -3
-30 -9 -35 -43 -4 -24 -14 -42 -27 -49 -11 -7 -22 -10 -24 -8 -2 2 2 29 10 60
10 46 11 60 0 74 -11 16 -15 16 -58 -9 -25 -15 -52 -27 -59 -27 -7 1 8 12 34
25 50 26 76 59 57 70 -6 4 -21 -2 -33 -14 -30 -28 -49 -28 -40 2 20 63 -1 71
-55 21 -37 -33 -41 -34 -41 -15 0 31 -16 26 -30 -10 -7 -17 -24 -37 -36 -46
-21 -13 -25 -13 -39 0 -27 28 -16 87 17 87 56 0 98 51 64 79 -15 13 -32 -1
-22 -18 6 -8 -55 -23 -63 -15 -2 2 8 16 22 30 30 30 33 39 15 50 -7 4 -18 -2
-26 -14 -18 -27 -32 -29 -25 -3 6 23 -16 39 -28 20 -5 -8 -9 -29 -9 -46 0 -31
-33 -83 -52 -83 -14 0 -9 83 7 114 15 28 13 46 -6 46 -5 0 -17 -16 -26 -35
-21 -45 -51 -47 -59 -5 -13 61 -53 65 -78 7 -23 -56 -61 -64 -40 -9 6 15 9 33
6 40 -6 19 -36 14 -56 -10 -15 -17 -16 -25 -7 -37 18 -26 32 -63 29 -80 -2 -8
-18 -24 -37 -35 l-34 -20 7 36 c4 22 2 39 -4 43 -7 4 -7 12 0 26 17 31 0 45
-21 18 -10 -13 -19 -18 -19 -11 0 7 11 28 25 46 19 25 23 38 17 61 -11 41 -26
41 -57 1 -32 -42 -45 -45 -45 -13 0 23 -17 47 -32 47 -4 0 -8 -14 -8 -31z
m101 -52 c-10 -9 -11 -8 -5 6 3 10 9 15 12 12 3 -3 0 -11 -7 -18z m-496 -37
c9 -16 22 -30 30 -30 7 0 17 -4 20 -10 3 -6 -4 -10 -17 -10 -27 1 -92 56 -83
70 12 19 35 10 50 -20z m-190 -6 c17 -18 15 -41 -5 -36 -6 1 -14 -7 -17 -18
-4 -16 -12 -20 -32 -18 -37 4 -40 40 -5 67 32 25 38 26 59 5z m116 -49 c-5
-27 -16 -54 -25 -61 -21 -15 -21 -34 0 -34 12 0 15 -6 10 -22 -3 -13 -6 -33
-6 -45 0 -20 -5 -23 -35 -23 -34 0 -35 1 -34 38 0 20 6 63 12 94 10 47 18 61
47 81 19 13 36 23 38 22 1 -1 -2 -24 -7 -50z m793 26 c14 -26 14 -30 0 -42
-13 -11 -15 -26 -9 -84 5 -59 4 -74 -10 -85 -15 -12 -16 -11 -9 14 5 20 0 37
-20 67 l-27 40 27 59 c15 33 28 60 30 60 2 0 10 -13 18 -29z m-250 -22 c5 -25
10 -30 25 -26 15 4 18 1 14 -12 -10 -27 -35 -51 -54 -51 -23 0 -35 54 -20 93
14 36 27 34 35 -4z m-1000 -15 c8 -31 -8 -54 -25 -37 -13 13 -4 63 10 63 5 0
12 -12 15 -26z m-72 -24 c4 -43 -5 -49 -34 -23 -23 20 -23 39 0 52 27 16 30
14 34 -29z m778 5 c11 -28 -10 -95 -29 -95 -19 0 -43 48 -36 72 17 53 49 64
65 23z m608 -7 c-2 -13 -11 -24 -20 -26 -21 -4 -24 18 -6 36 19 19 30 14 26
-10z m-1198 -8 c14 0 31 5 36 10 8 8 15 6 23 -4 11 -13 7 -16 -24 -22 -39 -7
-85 8 -85 28 0 9 3 9 12 0 7 -7 24 -12 38 -12z m432 8 c8 8 15 9 25 1 18 -15
17 -30 -2 -23 -22 9 -20 -32 3 -46 15 -9 14 -12 -12 -34 -20 -17 -27 -29 -22
-41 10 -26 -21 -67 -47 -63 -31 4 -38 58 -7 58 15 0 25 11 36 35 28 67 9 112
-23 53 -23 -44 -30 -14 -9 37 14 32 18 36 31 25 12 -10 19 -10 27 -2z m-676
-49 c22 -17 41 -32 42 -34 5 -5 -36 -95 -43 -95 -3 0 -3 16 1 35 6 36 -11 51
-22 20 -9 -21 -30 -19 -48 6 -9 13 -21 19 -30 16 -23 -9 -20 -22 13 -54 16
-15 32 -43 36 -60 6 -31 5 -33 -22 -33 -60 0 -73 9 -73 50 0 36 -20 67 -33 53
-4 -3 -7 -20 -7 -37 -1 -29 -2 -30 -15 -13 -12 17 -9 26 31 85 24 36 44 69 44
73 0 4 17 10 38 12 20 2 40 4 43 5 3 1 24 -12 45 -29z m994 28 c0 -2 -12 -14
-26 -28 -25 -22 -26 -23 -15 -2 9 18 19 26 39 32 1 1 2 0 2 -2z m554 -54 c-8
-77 -10 -83 -34 -83 -19 0 -20 4 -14 53 6 49 26 87 46 87 4 0 6 -26 2 -57z
m-1144 38 c0 -10 -39 -41 -52 -41 -4 0 -2 11 4 25 11 24 48 36 48 16z m669
-41 c20 0 41 -19 41 -37 0 -7 -6 -10 -14 -7 -7 3 -16 -3 -19 -13 -4 -10 -12
-26 -19 -35 -17 -24 -2 -35 20 -15 18 16 19 16 30 -8 7 -14 11 -38 11 -53 -1
-23 -3 -22 -8 8 -6 36 -23 43 -62 26 -12 -5 -20 1 -29 25 -12 27 -11 32 3 40
17 10 13 39 -6 39 -6 0 -19 -8 -29 -17 -18 -16 -19 -16 -8 12 6 17 23 43 38
58 l27 29 3 -26 c2 -17 10 -26 21 -26z m-828 20 c61 -12 69 -20 69 -78 0 -40
-1 -42 -21 -30 -17 10 -23 10 -26 1 -8 -22 -36 -14 -59 15 -12 15 -25 24 -29
20 -15 -14 7 -60 35 -76 33 -19 34 -35 2 -40 -25 -4 -64 17 -112 58 l-34 30
41 42 c37 37 44 40 59 27 16 -13 17 -11 11 19 -4 19 -3 31 2 27 5 -3 33 -10
62 -15z m1034 -1 c5 -14 0 -28 -16 -45 -28 -30 -45 -30 -60 -3 -10 19 -7 25
17 45 36 29 51 30 59 3z m-825 -33 c0 -26 -5 -36 -20 -41 -25 -8 -60 3 -60 18
0 9 46 42 78 56 1 1 2 -14 2 -33z m975 14 c-3 -5 -11 -10 -16 -10 -6 0 -7 5
-4 10 3 6 11 10 16 10 6 0 7 -4 4 -10z m-550 -9 c3 -5 1 -12 -5 -16 -5 -3 -10
1 -10 9 0 18 6 21 15 7z m589 -43 c-8 -29 -14 -59 -15 -68 0 -8 -25 -37 -55
-63 -46 -42 -55 -46 -61 -31 -9 24 32 96 90 161 27 29 50 53 52 53 1 0 -4 -23
-11 -52z m-681 0 c5 -19 -9 -92 -21 -115 -5 -8 -13 16 -21 61 -7 41 -10 79 -7
85 9 14 43 -7 49 -31z m365 17 c-6 -14 -13 -23 -16 -21 -7 7 9 46 18 46 5 0 4
-11 -2 -25z m583 -24 c-22 -43 -27 -71 -12 -71 13 0 -6 -55 -24 -70 -7 -6 -27
-15 -44 -20 -43 -12 -41 9 6 54 53 50 33 67 -30 26 -60 -38 -73 -38 -50 1 16
28 161 134 171 125 2 -2 -6 -22 -17 -45z m-433 -16 c-2 -36 -7 -45 -21 -45
-11 0 -32 -9 -48 -21 l-29 -20 0 30 c0 25 6 33 36 47 20 9 41 25 47 36 17 26
18 23 15 -27z m-371 -32 c15 -64 1 -75 -31 -25 -27 43 -26 72 3 72 11 0 20
-14 28 -47z m-1202 17 c16 -18 16 -20 2 -20 -9 0 -28 5 -42 12 -24 11 -25 13
-8 19 27 11 28 11 48 -11z m1835 -20 c-24 -34 -64 -64 -79 -58 -15 5 9 31 54
61 22 14 41 26 43 26 2 1 -6 -13 -18 -29z m302 -17 c-5 -73 -15 -84 -22 -23
-7 75 -24 69 -28 -10 -4 -93 -8 -101 -38 -65 -13 17 -24 39 -24 50 1 46 49 94
95 95 18 0 20 -5 17 -47z m-1412 27 c0 -5 -4 -10 -10 -10 -5 0 -10 5 -10 10 0
6 5 10 10 10 6 0 10 -4 10 -10z m-299 -98 c41 -23 47 -30 46 -58 -1 -20 9 -47
26 -71 15 -22 27 -42 27 -45 0 -10 -105 -21 -129 -13 -11 3 -26 18 -33 32 -9
16 -32 32 -68 46 -64 25 -74 49 -41 96 12 16 21 32 21 35 0 4 7 23 15 43 l15
36 38 -37 c20 -21 58 -49 83 -64z m382 73 c-3 -8 -9 -15 -14 -15 -10 0 -12 24
-3 33 11 11 24 -3 17 -18z m174 -7 c-3 -7 -5 -2 -5 12 0 14 2 19 5 13 2 -7 2
-19 0 -25z m-275 -13 c44 -19 46 -21 52 -70 15 -123 8 -150 -51 -219 -18 -22
-33 -46 -33 -53 0 -7 -9 -13 -21 -13 -33 0 -59 19 -59 43 0 13 -7 32 -15 43
-8 10 -15 41 -15 69 0 32 -7 62 -20 83 -20 32 -20 36 -5 76 15 39 21 44 63 53
55 12 46 13 104 -12z m568 -14 c0 -12 -29 -41 -41 -41 -12 0 -11 7 1 31 11 19
40 27 40 10z m-310 -43 c27 -59 25 -76 -7 -84 -35 -9 -53 -22 -53 -41 0 -21
45 -9 88 23 l32 25 0 -25 c0 -38 -30 -105 -51 -117 -24 -13 -16 -29 11 -22 24
6 27 -14 7 -42 -16 -21 -37 -12 -37 16 0 12 -7 19 -19 19 -19 0 -31 25 -31 68
0 14 -6 22 -18 22 -30 0 -42 22 -42 77 0 54 -6 63 -28 41 -15 -15 -15 -3 -1
24 9 16 13 18 19 7 7 -10 12 -6 21 14 13 29 29 27 29 -4 0 -25 18 -15 30 17
14 35 28 30 50 -18z m180 7 c21 -35 21 -37 5 -55 -23 -25 -37 -25 -60 1 -19
19 -19 21 0 55 10 18 22 34 26 34 4 0 17 -16 29 -35z m430 -54 c0 -83 -5 -91
-51 -91 -29 0 -41 5 -46 18 -3 9 -13 25 -20 34 -13 15 -13 20 3 48 17 29 53
47 97 49 14 1 17 -8 17 -58z m140 19 c-18 -11 -22 -7 -14 14 5 13 10 14 18 6
8 -8 7 -13 -4 -20z m-455 -77 c-35 -166 -54 -187 -67 -73 -2 18 -10 26 -28 28
-47 6 -52 10 -39 34 11 21 12 21 25 3 13 -17 14 -17 24 11 9 25 88 89 98 79 2
-2 -4 -39 -13 -82z m113 -23 c-3 -21 -9 -25 -42 -28 l-39 -3 7 47 c3 26 14 59
23 73 l16 25 19 -44 c10 -24 18 -56 16 -70z m402 69 c0 -44 -84 -123 -152
-144 -71 -21 -92 -2 -43 37 14 11 37 40 51 64 19 32 30 42 37 35 18 -18 42
-13 67 14 31 33 40 32 40 -6z m50 1 c0 -10 8 -23 17 -29 10 -5 15 -12 12 -15
-3 -3 -15 1 -27 10 -22 15 -31 54 -12 54 6 0 10 -9 10 -20z m204 4 c19 -18 20
-28 6 -55 -14 -25 -32 -24 -48 1 -13 22 -37 26 -47 9 -4 -6 1 -16 11 -23 13
-10 14 -15 5 -21 -7 -4 -22 2 -35 14 -12 12 -28 21 -34 21 -23 0 8 41 41 55
43 19 82 18 101 -1z m120 10 c25 -9 19 -24 -9 -24 -24 0 -32 10 -18 23 8 8 8
8 27 1z m-63 -77 c-13 -13 -26 -3 -16 12 3 6 11 8 17 5 6 -4 6 -10 -1 -17z
m100 2 c16 -16 18 -23 8 -35 -15 -19 -29 -18 -45 4 -12 16 -13 15 -23 -8 -9
-24 -10 -23 -10 11 -1 20 2 39 6 42 13 13 43 7 64 -14z m-751 -9 c0 -5 -5 -10
-11 -10 -5 0 -7 5 -4 10 3 6 8 10 11 10 2 0 4 -4 4 -10z m-1759 -61 c-14 -12
-19 -23 -15 -36 5 -13 4 -15 -4 -8 -12 11 -16 33 -14 79 l2 29 26 -24 25 -24
-20 -16z m2659 56 c0 -4 -7 -19 -15 -34 -16 -31 -41 -46 -51 -30 -3 6 -12 8
-20 5 -8 -3 -14 -1 -14 4 0 6 8 10 18 10 10 0 29 11 42 25 22 23 40 32 40 20z
m-522 -45 c3 -30 2 -32 -12 -21 -19 16 -22 65 -3 59 6 -3 13 -20 15 -38z
m-358 6 c0 -15 -28 -41 -36 -34 -2 3 1 17 7 31 12 26 29 28 29 3z m-336 -17
c19 -15 26 -30 26 -54 0 -22 8 -41 21 -54 l21 -20 -35 -63 c-39 -69 -114 -151
-129 -141 -15 8 -3 63 32 154 27 70 30 88 24 140 -7 65 -2 71 40 38z m-257
-73 l21 -35 -39 -36 c-30 -27 -44 -34 -63 -29 -19 4 -28 0 -41 -20 -10 -14
-21 -26 -26 -26 -16 0 -9 43 10 64 10 12 28 48 40 81 12 33 24 67 27 75 6 17
31 -9 71 -74z m918 14 l6 -35 -25 28 c-15 15 -26 40 -26 55 0 26 0 26 19 7 10
-11 22 -36 26 -55z m225 59 c0 -23 -22 -49 -40 -49 -11 0 -20 2 -20 4 0 2 -3
12 -7 21 -5 14 -2 16 14 11 14 -4 23 -1 27 9 6 17 26 21 26 4z m-2487 -24 c-7
-21 -13 -19 -13 6 0 11 4 18 10 14 5 -3 7 -12 3 -20z m62 5 c16 -18 16 -20 2
-20 -9 0 -21 9 -27 20 -6 11 -7 20 -2 20 5 0 17 -9 27 -20z m175 1 c0 -5 -7
-14 -16 -22 -13 -10 -17 -10 -24 2 -7 10 -4 16 8 21 24 9 32 9 32 -1z m1605
-13 c-4 -13 -15 -39 -25 -58 -16 -30 -24 -72 -34 -165 -1 -11 -27 -45 -57 -75
-30 -30 -66 -75 -80 -100 -16 -29 -32 -46 -47 -48 -12 -2 -34 -19 -48 -38 -21
-26 -30 -32 -40 -23 -7 6 -18 8 -24 4 -6 -4 -10 8 -10 32 0 21 -3 48 -6 61 -5
18 -2 22 15 22 46 0 111 78 256 305 59 92 70 105 93 105 9 0 11 -7 7 -22z
m825 12 c0 -5 -8 -10 -17 -10 -15 0 -16 2 -3 10 19 12 20 12 20 0z m-282 -12
c17 -17 15 -28 -7 -28 -22 0 -35 15 -26 30 8 13 18 13 33 -2z m208 -65 c13
-34 15 -49 6 -68 -13 -27 -32 -34 -32 -11 0 8 -3 22 -6 30 -5 12 -2 15 10 10
9 -3 16 -2 16 4 0 24 -13 42 -30 42 -25 0 -33 16 -25 47 6 24 7 25 25 8 11
-10 27 -37 36 -62z m-1611 57 c-3 -5 -15 -10 -26 -10 -11 0 -17 5 -14 10 3 6
15 10 26 10 11 0 17 -4 14 -10z m1236 -46 c26 -38 27 -44 12 -44 -15 1 -73 74
-73 93 0 17 34 -11 61 -49z m598 29 c0 -24 -8 -32 -58 -55 -32 -16 -63 -28
-70 -28 -6 0 -10 12 -10 28 1 17 3 21 6 9 7 -25 27 -15 31 15 2 20 8 24 25 21
14 -3 33 4 47 16 31 26 30 26 29 -6z m-806 -3 c6 -24 40 -26 77 -5 33 19 40
18 40 -2 0 -36 38 -80 84 -99 25 -10 46 -22 46 -26 0 -14 -80 -66 -110 -73
-48 -10 -67 -48 -72 -143 -4 -66 -9 -87 -26 -105 -11 -12 -30 -43 -41 -69 -11
-27 -24 -48 -29 -48 -17 0 -33 28 -36 65 -3 28 -10 41 -33 55 -21 13 -32 28
-36 52 -3 18 -13 54 -23 81 -26 66 -15 79 62 81 67 2 115 25 159 77 23 28 33
59 19 59 -3 0 -29 -18 -58 -41 -49 -39 -53 -41 -101 -34 -27 3 -52 8 -54 11
-3 3 1 24 8 47 7 23 15 53 17 67 6 27 58 70 85 70 9 0 19 -9 22 -20z m-1748
-39 c-21 -44 -40 -61 -65 -61 -5 0 -14 17 -19 38 -14 47 -13 76 1 40 12 -36
22 -35 50 2 12 17 30 30 39 30 15 0 15 -5 -6 -49z m2373 37 c7 -7 12 -21 12
-32 -1 -20 -1 -20 -20 3 -29 34 -22 59 8 29z m382 2 c0 -14 -48 -35 -58 -26
-8 9 26 36 45 36 7 0 13 -5 13 -10z m-3226 -26 c9 -8 16 -29 16 -46 0 -26 -2
-29 -15 -18 -13 11 -15 7 -15 -26 0 -75 26 -135 45 -104 3 6 18 10 32 10 21 0
23 -2 13 -15 -7 -8 -17 -12 -22 -9 -5 4 -23 -9 -39 -28 -27 -34 -84 -66 -95
-55 -3 3 -1 22 6 42 11 34 13 35 29 21 10 -9 23 -16 29 -16 19 0 14 28 -8 40
-14 7 -20 21 -20 45 0 18 -4 45 -10 59 -8 23 -7 26 11 26 17 0 20 6 19 33 -4
62 -1 67 24 41z m321 6 c9 -15 -22 -60 -41 -60 -13 0 -15 6 -9 27 9 38 36 55
50 33z m1086 -33 c-8 -8 -11 -7 -11 4 0 20 13 34 18 19 3 -7 -1 -17 -7 -23z
m-1217 17 c20 -8 21 -54 2 -54 -8 0 -21 -3 -30 -6 -12 -5 -16 0 -16 18 0 13 5
29 12 36 14 14 12 14 32 6z m2384 -3 c13 -8 6 -14 -45 -45 -19 -11 -16 19 3
38 18 18 24 19 42 7z m-1908 -29 c0 -9 -4 -24 -10 -32 -7 -11 -11 -8 -20 15
-8 21 -8 30 2 36 16 10 28 2 28 -19z m-184 -88 c-23 -61 -40 -90 -53 -93 -10
-2 -29 -12 -43 -23 -15 -12 -26 -15 -28 -8 -9 26 12 65 67 124 32 35 64 74 72
87 27 51 18 -4 -15 -87z m1142 70 c1 -11 -11 -41 -29 -67 l-31 -47 -60 0 c-37
0 -57 4 -53 10 3 6 12 10 18 10 7 0 39 27 72 58 63 62 78 68 83 36z m1067 20
c9 -4 27 -30 42 -58 l25 -51 -46 45 c-53 51 -63 80 -21 64z m-2587 -31 c2 -13
-6 -31 -19 -44 -27 -27 -34 -15 -24 37 4 26 11 34 23 32 9 -2 18 -13 20 -25z
m887 -31 c-8 -2 -15 -7 -15 -12 0 -5 -3 -15 -6 -24 -4 -11 -1 -16 11 -16 13 0
16 -5 10 -22 -15 -49 -18 -128 -5 -143 11 -13 9 -20 -11 -41 -21 -23 -24 -23
-30 -7 -14 35 -8 108 11 152 19 40 19 68 1 56 -5 -2 -6 17 -4 43 7 74 11 80
33 47 17 -25 17 -31 5 -33z m2151 39 c-16 -18 -56 -35 -56 -24 0 20 25 43 47
43 25 0 25 -1 9 -19z m-3233 -11 c3 -11 1 -20 -4 -20 -5 0 -9 9 -9 20 0 11 2
20 4 20 2 0 6 -9 9 -20z m420 -7 c-28 -19 -30 -37 -3 -30 11 3 20 1 20 -4 0
-20 -35 -79 -47 -79 -15 0 -33 31 -33 58 0 21 53 72 73 71 7 0 2 -7 -10 -16z
m1027 13 c0 -3 -4 -8 -10 -11 -5 -3 -10 -1 -10 4 0 6 5 11 10 11 6 0 10 -2 10
-4z m-653 -53 c-3 -10 -5 -2 -5 17 0 19 2 27 5 18 2 -10 2 -26 0 -35z m2276
27 c-4 -16 0 -20 18 -20 22 0 21 -2 -15 -39 -21 -21 -43 -38 -49 -38 -39 1
-59 -7 -100 -38 -25 -19 -48 -35 -51 -35 -13 0 -5 33 18 79 20 38 31 50 57 55
51 10 59 8 59 -19 0 -14 4 -25 10 -25 17 0 28 33 19 57 -6 17 -4 25 9 32 25
15 31 13 25 -9z m274 3 c4 -12 -84 -50 -93 -40 -10 10 6 27 25 27 10 0 24 7
31 15 14 17 31 16 37 -2z m-687 -11 c0 -10 -7 -27 -15 -38 -13 -17 -13 -15 -3
19 12 41 18 47 18 19z m98 -13 c89 -65 95 -149 12 -149 -12 0 -36 -14 -53 -32
-47 -47 -67 -45 -67 9 0 24 5 43 10 43 16 0 50 62 50 93 0 36 -17 35 -25 -3
-7 -33 -25 -51 -25 -24 0 18 40 94 50 94 3 0 25 -14 48 -31z m686 12 c10 -11
16 -24 15 -29 -9 -20 -95 -131 -103 -131 -17 -2 0 106 23 142 26 42 40 46 65
18z m-3623 -11 c23 -19 23 -21 6 -31 -10 -6 -23 -22 -28 -36 -16 -42 -33 -13
-25 41 8 52 14 55 47 26z m461 -21 c-1 -13 -19 -40 -38 -59 l-36 -35 5 39 c10
64 76 117 69 55z m3337 -40 c1 -19 -8 -34 -31 -51 -52 -40 -116 -69 -123 -57
-10 15 23 47 57 54 17 4 33 16 37 28 12 30 3 41 -17 24 -28 -23 -52 -28 -52
-11 0 8 4 12 10 9 5 -3 16 10 24 29 12 28 20 35 48 38 35 3 45 -9 47 -63z
m-2729 24 c-1 -36 -2 -37 -15 -19 -19 26 -19 56 0 56 11 0 15 -11 15 -37z
m850 -12 c0 -32 -76 -151 -96 -151 -7 0 -21 -15 -30 -32 -26 -52 -38 -53 -44
-5 -6 48 -27 56 -47 17 l-13 -25 0 31 c0 77 44 126 101 111 33 -9 69 13 90 55
22 43 39 42 39 -1z m1443 32 c-20 -3 -33 -10 -33 -19 0 -8 -4 -14 -10 -14 -11
0 -14 23 -3 33 3 4 22 6 42 5 l36 -1 -32 -4z m-3455 -15 c19 -19 15 -48 -5
-41 -19 6 -43 32 -43 45 0 12 34 10 48 -4z m1032 -5 c-1 -29 -150 -163 -181
-163 -5 0 -9 8 -9 19 0 28 48 71 81 71 21 0 32 7 44 29 27 54 65 79 65 44z
m651 -10 c-12 -20 -14 -14 -5 12 4 9 9 14 11 11 3 -2 0 -13 -6 -23z m-954 -5
c-3 -8 -6 -5 -6 6 -1 11 2 17 5 13 3 -3 4 -12 1 -19z m-511 -30 c29 -31 37
-63 24 -88 -21 -39 -60 -19 -69 36 -8 46 -34 54 -39 12 -2 -16 -7 -28 -12 -28
-5 0 -15 -3 -24 -6 -9 -3 -16 -1 -16 4 0 6 9 14 21 17 20 7 21 16 4 58 -6 13
-2 17 18 17 14 0 29 5 32 10 8 13 33 0 61 -32z m905 0 c7 -14 7 -24 -2 -34 -8
-10 -8 -18 -1 -27 17 -20 -2 -44 -21 -28 -13 10 -20 5 -44 -31 -35 -52 -55
-58 -72 -21 -12 27 -13 27 -24 7 -34 -59 -70 -94 -98 -94 -29 0 -54 -26 -104
-111 l-19 -34 -4 26 c-2 15 3 40 10 57 18 42 99 126 136 141 16 7 40 23 53 37
12 13 29 24 38 24 8 0 25 10 38 22 l23 21 0 -36 c0 -59 17 -43 23 23 9 77 22
106 43 89 8 -7 20 -21 25 -31z m2472 -24 l6 -61 -46 -6 c-37 -4 -50 -1 -60 11
-10 14 -13 15 -14 2 -1 -8 -5 5 -10 30 -10 49 5 82 17 36 9 -36 34 -34 34 4 0
25 5 31 33 38 17 5 32 9 33 8 1 -1 4 -29 7 -62z m-2976 -16 c8 -9 12 -25 9
-35 -6 -18 -100 -123 -111 -123 -12 0 -22 45 -13 58 7 8 7 17 -2 27 -15 19
-10 33 37 93 l38 49 14 -26 c7 -14 20 -34 28 -43z m2249 51 c15 -17 18 -33 16
-87 -2 -37 2 -80 8 -97 14 -37 4 -45 -87 -76 -76 -25 -102 -15 -65 24 27 29
28 47 3 47 -13 0 -19 7 -18 23 0 12 -3 38 -7 59 -8 34 -7 36 23 43 19 4 44 22
63 46 17 21 34 39 38 39 4 0 15 -9 26 -21z m-3051 -38 c25 -12 27 -15 12 -19
-11 -2 -30 6 -43 19 -13 12 -27 20 -30 16 -4 -3 -10 -32 -14 -64 -6 -55 -10
-56 -25 -7 -3 9 4 37 16 62 21 43 23 44 38 26 9 -10 30 -25 46 -33z m1948 7
c-3 -24 -12 -50 -19 -58 -12 -12 -14 -7 -14 38 0 30 4 51 9 47 5 -3 12 -1 16
5 11 18 13 11 8 -32z m-1839 16 c14 -5 14 -9 0 -35 -18 -36 -40 -37 -48 -4
-10 41 7 55 48 39z m1467 -47 c-16 -16 -20 -5 -8 23 9 22 11 23 14 6 3 -10 0
-23 -6 -29z m222 37 c8 -9 -11 -44 -23 -44 -6 0 -10 8 -10 18 0 27 18 41 33
26z m1821 -21 c2 -16 7 -46 11 -68 l6 -40 -32 59 c-25 47 -28 60 -18 67 22 14
27 11 33 -18z m281 5 c-4 -13 -11 -27 -16 -32 -15 -17 -23 3 -11 29 15 32 36
34 27 3z m-4047 -16 c4 -27 -14 -29 -28 -3 -14 27 -13 33 8 29 9 -2 18 -13 20
-26z m4449 1 c-2 -27 0 -28 41 -26 43 2 43 2 40 -30 -2 -24 -8 -33 -25 -35
-15 -2 -23 2 -23 11 0 26 -42 28 -65 4 -11 -12 -20 -25 -20 -29 0 -5 -3 -8 -8
-9 -17 -1 -25 7 -29 30 -2 20 2 26 22 31 14 4 24 12 23 18 -5 21 16 62 31 62
10 0 14 -9 13 -27z m-751 -76 c-6 -74 -4 -96 8 -112 9 -11 16 -34 16 -51 0
-25 -8 -36 -46 -63 -25 -18 -47 -31 -50 -28 -2 2 5 26 17 53 13 29 24 80 27
123 4 65 2 76 -14 88 -18 14 -18 15 4 30 12 9 22 24 22 34 0 11 5 19 11 19 9
0 10 -26 5 -93z m554 73 c0 -19 -20 -27 -33 -13 -8 7 11 33 24 33 5 0 9 -9 9
-20z m-3920 3 c0 -5 -11 -13 -25 -20 -28 -13 -34 1 -7 16 21 12 32 14 32 4z
m55 -3 c3 -5 -1 -10 -9 -10 -9 0 -16 5 -16 10 0 6 4 10 9 10 6 0 13 -4 16 -10z
m411 -17 c-3 -8 -6 -20 -7 -26 -1 -14 -17 22 -18 40 -1 7 6 10 15 6 8 -3 13
-12 10 -20z m1029 -10 c5 -19 3 -23 -17 -23 -13 0 -30 5 -38 10 -13 9 -11 13
10 30 27 20 34 18 45 -17z m1775 12 c0 -9 -8 -30 -17 -48 -10 -18 -18 -54 -18
-82 0 -50 0 -50 -38 -56 -20 -3 -40 -9 -44 -12 -3 -4 -15 0 -25 9 -23 21 -43
6 -65 -48 -13 -33 -19 -38 -48 -38 -54 0 -58 36 -18 137 29 73 43 90 56 68 15
-28 55 -16 118 35 63 50 99 63 99 35z m-1705 -5 c3 -5 1 -10 -4 -10 -6 0 -11
5 -11 10 0 6 2 10 4 10 3 0 8 -4 11 -10z m780 -76 c-7 -86 -7 -87 15 -81 16 4
24 -1 32 -21 7 -15 27 -43 45 -63 30 -32 34 -42 39 -115 5 -69 3 -87 -20 -147
-30 -79 -31 -90 -10 -112 13 -13 17 -40 19 -127 1 -89 5 -113 18 -123 15 -10
13 -18 -14 -75 -16 -35 -51 -98 -77 -139 l-47 -76 0 -175 c0 -167 -1 -177 -23
-204 -37 -48 -93 -83 -144 -89 -71 -10 -116 -32 -136 -68 -50 -90 -75 -121
-127 -154 -82 -53 -78 -54 -118 22 -48 93 -68 167 -69 263 -1 44 -4 82 -7 84
-3 2 -6 98 -6 213 l0 210 28 36 c15 21 41 44 57 52 28 14 31 14 50 -5 11 -11
22 -30 25 -43 6 -22 11 -24 64 -23 64 2 103 23 146 80 25 33 33 66 15 66 -5 0
-29 -20 -53 -45 -40 -40 -50 -45 -91 -45 -38 0 -48 4 -62 25 -23 35 -12 58 23
51 17 -4 55 3 98 18 62 22 72 29 89 63 10 21 31 54 47 74 31 40 37 59 16 59
-20 0 -42 -21 -71 -67 -43 -69 -84 -82 -107 -32 -24 54 -45 21 -25 -38 6 -20
4 -23 -16 -23 -13 0 -38 -9 -57 -21 -19 -11 -46 -25 -60 -30 -24 -8 -25 -8 -7
6 10 8 27 31 36 52 9 21 31 53 48 70 18 17 32 35 32 39 0 19 52 72 77 79 15 3
36 14 45 22 12 11 42 17 93 19 87 4 102 9 83 31 -8 10 -23 13 -45 10 -32 -6
-29 -1 59 84 72 70 89 92 80 101 -10 10 -19 8 -43 -6 -23 -14 -41 -16 -80 -11
-53 7 -55 11 -38 49 10 21 15 23 31 15 32 -17 138 42 138 78 0 18 -25 17 -40
-2 -7 -8 -18 -15 -24 -15 -6 1 4 14 23 30 34 29 35 50 1 50 -17 0 -60 -42 -74
-72 -5 -10 -7 -10 -12 0 -3 6 -14 12 -24 12 -19 0 -30 -19 -30 -51 0 -10 -4
-19 -10 -19 -5 0 -10 4 -10 9 0 5 -15 14 -32 21 l-33 11 24 17 c13 9 36 29 52
44 16 14 29 22 29 17 0 -5 7 -9 15 -9 18 0 35 31 35 65 0 15 9 39 21 53 11 15
33 46 50 70 44 64 53 56 44 -44z m-2525 51 c0 -6 -9 -20 -21 -31 -17 -16 -22
-16 -29 -4 -11 18 -12 23 -4 43 6 17 54 11 54 -8z m986 -10 c18 -44 18 -51 -1
-35 -12 10 -19 10 -27 2 -19 -19 -28 -14 -28 16 0 27 15 52 33 52 4 0 15 -16
23 -35z m-806 -18 c0 -20 -1 -20 -16 -5 -9 9 -13 21 -9 27 10 16 25 3 25 -22z
m1177 -15 c-20 -20 -37 -31 -37 -24 0 18 59 76 67 68 4 -4 -10 -23 -30 -44z
m483 6 c0 -20 -1 -21 -24 -12 -19 7 -21 25 -4 42 14 14 28 -1 28 -30z m316 14
c-18 -16 -18 -16 -6 6 6 13 14 21 18 18 3 -4 -2 -14 -12 -24z m-2321 7 c11
-17 -1 -21 -15 -4 -8 9 -8 15 -2 15 6 0 14 -5 17 -11z m210 -14 c0 -10 -6 -20
-12 -22 -8 -3 -13 5 -13 22 0 17 5 25 13 23 6 -3 12 -13 12 -23z m529 -5 c4
-20 11 -30 24 -30 31 0 42 -22 42 -81 l0 -58 -31 11 c-20 7 -28 15 -25 25 9
22 -3 36 -20 22 -11 -9 -14 -7 -14 10 0 11 -6 21 -13 21 -21 0 -58 45 -52 62
5 13 58 45 76 47 4 1 9 -12 13 -29z m3481 21 c-56 -7 -67 -27 -26 -47 l23 -12
-23 -8 c-13 -4 -36 -7 -51 -6 -20 2 -33 -6 -50 -28 -12 -17 -29 -29 -38 -27
-9 2 -23 -12 -35 -37 -29 -59 -43 -57 -48 6 -3 41 -5 48 -11 31 -9 -26 -24
-29 -50 -10 -16 11 -15 14 12 40 24 23 30 26 35 13 9 -23 24 -19 31 7 3 13 16
37 28 53 l23 29 5 -55 5 -55 33 48 c40 57 58 66 132 65 l55 -1 -50 -6z m-3228
-23 c-3 -8 -6 -5 -6 6 -1 11 2 17 5 13 3 -3 4 -12 1 -19z m-516 -55 c-17 -65
-19 -68 -52 -74 -19 -3 -49 -20 -68 -37 -37 -36 -54 -41 -49 -14 2 9 10 17 18
17 20 0 42 50 48 106 4 44 6 46 46 56 79 19 76 22 57 -54z m1129 53 c0 -8 3
-22 6 -30 5 -13 0 -16 -24 -14 -43 4 -42 -13 1 -37 40 -22 45 -41 27 -107 -9
-32 -33 -58 -54 -58 -3 0 -8 27 -12 61 -5 43 -14 69 -32 90 -13 17 -23 31 -21
32 2 2 23 19 47 40 45 39 62 46 62 23z m-1295 -29 c19 -28 19 -62 -1 -81 -20
-21 -27 -16 -58 40 -18 33 -23 50 -16 59 14 17 58 7 75 -18z m3619 18 c-10
-25 -43 -38 -59 -25 -8 7 -19 9 -25 5 -5 -3 -10 1 -10 9 0 9 9 16 20 16 11 0
20 -5 20 -11 0 -5 10 -3 22 5 28 20 39 20 32 1z m416 -12 c0 -35 -14 -58 -29
-49 -22 14 -9 76 15 76 9 0 14 -11 14 -27z m-4357 -19 c-1 -4 -11 -11 -22 -16
-18 -6 -21 -4 -21 24 0 29 1 30 23 16 12 -9 21 -19 20 -24z m1942 12 c13 3 31
1 41 -4 15 -9 14 -12 -14 -26 -38 -20 -40 -20 -44 0 -5 28 -55 26 -77 -2 -22
-28 -44 -32 -39 -6 2 9 23 27 48 39 38 18 46 19 53 7 5 -9 17 -12 32 -8z
m1831 -31 c-3 -9 -10 -13 -16 -10 -12 7 -13 48 -3 59 11 11 27 -30 19 -49z
m-2706 31 c0 -8 -11 -51 -25 -94 -14 -44 -28 -99 -31 -124 -6 -44 -5 -46 40
-83 35 -29 46 -44 46 -66 0 -29 -43 -124 -74 -164 -15 -19 -15 -18 -16 20 -1
72 -17 126 -44 154 -19 20 -29 45 -37 92 -5 35 -15 80 -21 101 -10 34 -8 39
32 97 35 50 48 61 71 61 15 0 31 5 34 10 9 15 25 12 25 -4z m-935 -14 c66 -5
85 -15 85 -43 0 -21 -15 -25 -25 -8 -5 6 -12 4 -20 -7 -12 -17 -15 -16 -49 14
-37 32 -56 34 -56 6 0 -25 -23 -10 -31 19 -8 30 -1 40 20 31 9 -4 43 -9 76
-12z m444 4 c10 -11 10 -20 0 -38 -17 -32 -71 -99 -76 -94 -7 7 24 60 46 80
21 19 28 46 13 46 -4 0 -13 -5 -20 -12 -15 -15 -24 -6 -16 16 8 20 37 21 53 2z
m852 -9 c-10 -9 -11 -8 -5 6 3 10 9 15 12 12 3 -3 0 -11 -7 -18z m2234 -84
c-3 -13 -10 -23 -17 -23 -12 0 -5 100 9 122 10 16 17 -65 8 -99z m800 88 c-3
-6 -11 -11 -17 -11 -6 0 -6 6 2 15 14 17 26 13 15 -4z m-2689 -61 c-9 -53 -11
-57 -28 -46 -16 9 -22 7 -34 -8 -20 -28 -18 -15 12 58 19 49 29 63 43 59 15
-4 16 -11 7 -63z m565 15 c24 -54 23 -133 -1 -126 -8 2 -32 4 -52 4 l-38 0 20
27 c24 33 25 44 6 59 -11 10 -18 2 -37 -39 -25 -56 -39 -64 -39 -22 1 48 75
142 113 142 4 0 17 -20 28 -45z m1489 13 c0 -5 -7 -8 -15 -8 -15 0 -20 21 -8
33 7 7 23 -11 23 -25z m749 5 c18 -38 27 -128 13 -119 -18 11 -134 -33 -176
-66 -31 -25 -40 -28 -47 -17 -16 25 -6 64 16 64 28 0 135 42 165 65 23 17 23
19 6 26 -11 4 -35 -1 -62 -15 -50 -24 -58 -25 -49 -11 12 20 -26 22 -48 3 -51
-46 -68 -28 -22 24 20 23 26 25 34 14 11 -17 30 -9 90 34 44 32 65 32 80 -2z
m-3204 -30 c-7 -17 -8 -17 -15 2 -5 11 -9 27 -9 35 -1 12 2 11 15 -2 11 -11
14 -23 9 -35z m695 6 c0 -11 -38 -35 -67 -44 -34 -10 -31 33 5 61 25 20 28 21
45 7 9 -9 17 -20 17 -24z m-1385 -20 c8 -23 -21 -92 -35 -84 -5 3 -10 14 -10
24 0 21 -23 44 -33 34 -4 -3 -7 -27 -7 -53 0 -56 -33 -100 -75 -100 -20 0 -25
5 -25 25 0 53 78 163 112 157 12 -2 19 5 24 23 6 25 7 25 25 9 10 -9 21 -25
24 -35z m3561 26 c3 -8 -4 -28 -16 -45 -18 -25 -25 -28 -36 -19 -17 14 -17 20
-4 53 11 29 47 36 56 11z m-2098 -7 c-7 -19 -38 -22 -38 -4 0 10 9 16 21 16
12 0 19 -5 17 -12z m-680 -10 c7 -7 12 -20 12 -30 0 -10 7 -18 16 -18 17 0 44
-57 44 -94 0 -23 -3 -24 -36 -19 -28 5 -40 2 -49 -11 -7 -9 -19 -14 -27 -11
-12 5 -14 22 -10 88 5 98 20 125 50 95z m-183 -80 c-5 -64 -14 -98 -37 -146
-33 -67 -32 -88 5 -55 12 11 31 25 43 31 15 8 23 24 27 59 3 26 15 68 26 93
l20 45 0 -45 c1 -30 -9 -65 -28 -105 -36 -75 -101 -167 -101 -142 0 10 -8 17
-18 17 -13 0 -26 15 -38 42 -10 23 -29 55 -42 70 l-23 27 28 65 c23 53 32 66
50 66 13 0 37 13 55 30 18 16 34 30 36 30 2 0 0 -37 -3 -82z m42 45 c-3 -10
-5 -4 -5 12 0 17 2 24 5 18 2 -7 2 -21 0 -30z m1939 -18 c0 -43 4 -59 24 -80
13 -14 35 -25 50 -25 20 0 29 -8 43 -37 l16 -37 -41 -90 c-54 -118 -58 -159
-23 -224 15 -28 25 -58 22 -67 -4 -8 -2 -27 3 -41 7 -19 6 -40 -5 -77 -8 -28
-15 -63 -15 -79 0 -25 -3 -28 -23 -22 -20 4 -26 0 -37 -25 -7 -17 -15 -29 -19
-27 -4 3 -13 1 -21 -4 -9 -5 -19 -5 -27 2 -17 14 -43 3 -43 -18 0 -9 9 -32 21
-51 20 -32 20 -35 5 -73 -9 -22 -16 -49 -16 -59 0 -19 -54 -67 -105 -94 -26
-13 -34 -13 -55 -1 -48 26 -87 18 -139 -31 l-48 -44 1 77 c1 75 3 80 39 124
30 36 35 48 24 56 -7 6 -23 9 -35 5 -34 -9 -28 19 31 142 30 61 59 133 66 160
6 28 19 65 29 83 17 33 17 34 -10 57 -16 13 -28 31 -28 40 0 9 -12 37 -26 61
l-26 45 26 50 c14 28 26 62 26 76 0 14 9 42 19 62 11 20 22 56 26 81 l6 45 91
17 c69 13 102 25 133 47 22 16 40 30 40 30 1 1 1 -24 1 -54z m1054 4 c0 -36
-4 -49 -12 -47 -14 5 -23 61 -14 84 12 31 26 11 26 -37z m-2474 25 c-4 -12 -2
-15 9 -10 11 4 15 -2 15 -24 0 -16 -4 -32 -10 -35 -6 -4 -10 5 -10 20 0 17 -5
25 -12 22 -14 -4 -17 -59 -5 -94 6 -17 2 -24 -23 -37 -34 -16 -34 -16 -44 41
-3 21 -1 35 8 40 7 4 23 27 35 51 20 39 50 61 37 26z m135 -117 c19 -15 20
-20 8 -28 -19 -12 -33 -11 -64 3 -26 12 -34 45 -14 65 8 8 8 13 0 17 -20 13
-12 52 12 63 21 10 22 8 28 -45 5 -42 13 -61 30 -75z m1928 94 c29 -23 33 -32
27 -55 -7 -30 -37 -61 -86 -90 l-32 -18 7 45 c6 37 4 47 -10 54 -16 9 -15 14
10 52 15 22 33 41 39 41 6 0 26 -13 45 -29z m260 -7 c21 -35 21 -37 4 -100 -9
-35 -22 -64 -27 -64 -5 0 -34 -26 -62 -57 -29 -31 -57 -54 -61 -50 -4 4 -1 27
6 50 7 23 15 56 18 72 3 17 16 41 28 55 13 14 26 36 30 50 9 29 34 80 39 80 2
0 13 -16 25 -36z m-94 -33 c-14 -28 -51 -61 -67 -61 -20 0 -4 31 30 59 47 38
57 39 37 2z m-3607 -12 c-7 -20 -15 -28 -25 -25 -12 5 -14 -5 -11 -59 3 -57 1
-66 -16 -71 -30 -10 -58 33 -50 76 4 19 8 43 9 54 2 19 57 55 87 56 15 0 15
-4 6 -31z m321 16 c9 -9 -9 -31 -39 -49 l-33 -19 6 24 c4 13 7 32 7 43 0 15 5
17 27 11 16 -4 30 -8 32 -10z m1241 -16 c-13 -23 -33 -21 -38 4 -3 12 4 17 23
17 23 0 25 -2 15 -21z m1438 -4 c-6 -14 -15 -25 -20 -25 -5 0 -7 3 -5 8 2 4 7
15 10 25 4 9 11 17 16 17 7 0 6 -9 -1 -25z m139 17 c9 -6 7 -22 -12 -67 -13
-33 -27 -88 -31 -123 -6 -56 -4 -67 15 -92 11 -16 21 -32 21 -35 0 -3 -15 -22
-34 -42 -18 -21 -39 -55 -45 -75 -7 -21 -17 -40 -22 -43 -5 -4 -9 -43 -10 -88
-1 -103 -9 -132 -34 -132 -27 0 -31 35 -10 76 13 25 16 46 10 95 -4 35 -11 64
-16 64 -5 0 -9 22 -9 50 0 35 -5 52 -16 58 -28 16 -10 61 27 69 17 3 37 16 46
29 14 22 14 29 -1 73 -9 28 -16 64 -16 81 0 37 38 98 65 103 35 7 60 7 72 -1z
m673 -31 c0 -18 -12 -38 -35 -61 -24 -23 -35 -29 -35 -18 0 8 7 21 15 28 8 7
15 18 15 26 0 25 20 65 30 59 5 -3 10 -19 10 -34z m380 20 c-12 -23 -30 -36
-30 -22 0 21 13 41 26 41 11 0 12 -4 4 -19z m-2531 -21 c8 -25 7 -32 -4 -37
-9 -3 -22 0 -30 7 -11 9 -11 17 -3 36 15 32 24 30 37 -6z m-372 -110 c14 -11
36 -20 48 -20 28 0 35 -22 35 -118 l0 -73 -32 -11 c-18 -7 -57 -24 -87 -40
-41 -22 -57 -26 -67 -17 -21 17 -17 49 5 49 11 0 21 6 24 13 8 25 -13 83 -37
104 -33 29 -33 45 4 86 17 19 30 37 30 40 0 4 10 32 23 64 l22 58 3 -57 c2
-48 7 -61 29 -78z m2831 84 c-14 -41 -31 -50 -74 -40 -36 9 -29 25 21 47 24
11 47 24 51 30 13 21 14 1 2 -37z m-3898 16 c-20 -13 -33 -13 -25 0 3 6 14 10
23 10 15 0 15 -2 2 -10z m163 -30 c32 -35 35 -82 11 -153 -21 -62 -41 -78 -49
-40 -16 70 -21 78 -51 81 -21 2 -34 12 -47 34 -18 32 -18 32 5 50 24 19 89 57
99 58 3 0 18 -13 32 -30z m2887 23 c0 -5 -7 -16 -15 -27 -9 -13 -12 -33 -8
-66 4 -39 1 -55 -16 -84 -27 -44 -57 -55 -81 -30 -13 16 -16 31 -11 82 l6 62
55 34 c57 36 70 41 70 29z m-3722 -46 c3 -39 3 -40 -22 -31 -17 6 -21 31 -10
59 11 27 29 11 32 -28z m2292 33 c0 -16 -23 -22 -71 -18 -42 4 -43 4 -19 15
32 15 90 16 90 3z m120 -25 c-7 -9 -15 -13 -19 -10 -3 3 1 10 9 15 21 14 24
12 10 -5z m1363 -30 c-5 -42 -4 -45 16 -45 30 0 59 16 99 54 l33 31 20 -25
c38 -49 34 -88 -17 -168 -13 -19 -18 -21 -30 -11 -12 10 -20 7 -42 -13 -30
-29 -73 -52 -114 -62 -27 -6 -39 6 -18 19 6 4 8 11 4 16 -4 7 -12 5 -22 -4
-29 -24 -42 -29 -42 -14 0 7 11 19 24 27 30 16 42 45 56 134 10 63 24 106 35
106 3 0 2 -20 -2 -45z m541 29 c8 -21 -8 -48 -44 -74 -29 -21 -60 -21 -60 -2
0 13 75 92 87 92 6 0 14 -7 17 -16z m-2750 -74 c-7 -36 -14 -83 -14 -105 -1
-36 -7 -45 -61 -92 -53 -47 -102 -73 -114 -61 -7 7 18 82 30 90 6 3 25 20 43
37 18 18 43 31 57 31 29 0 33 15 8 29 -14 7 -29 4 -60 -15 -24 -14 -43 -20
-43 -14 0 20 28 65 57 91 29 27 105 80 109 76 1 -1 -4 -31 -12 -67z m521 40
c0 -8 10 -16 23 -18 30 -4 28 -18 -7 -53 -39 -38 -91 -41 -91 -5 0 31 18 78
33 88 18 12 42 5 42 -12z m379 4 c9 -23 -3 -37 -20 -23 -20 16 -31 2 -17 -20
10 -16 9 -18 -8 -14 -22 6 -26 -16 -6 -36 10 -10 8 -15 -7 -27 -69 -51 -67 34
2 109 29 31 47 34 56 11z m2038 -18 c11 -3 15 -11 12 -21 -8 -20 18 -20 57 0
27 14 31 14 45 0 8 -8 26 -15 40 -15 13 0 24 -4 24 -9 0 -5 -34 -32 -76 -61
l-76 -52 38 56 c20 31 34 59 31 63 -4 3 -23 -2 -43 -13 -32 -17 -36 -18 -45
-2 -6 10 -29 18 -69 23 -33 4 -60 11 -60 15 0 5 12 17 27 28 25 18 31 19 53 7
14 -7 33 -16 42 -19z m-4379 -122 c-8 -24 -35 -67 -60 -94 -45 -50 -46 -50
-60 -30 -13 19 -13 27 6 73 11 29 23 64 27 79 3 15 13 29 21 32 12 5 11 11 -6
40 -34 54 -24 54 33 -3 l54 -53 -15 -44z m1840 132 c21 0 21 2 0 -57 -14 -38
-23 -49 -39 -49 -17 0 -22 9 -31 55 -5 30 -7 57 -5 60 3 2 17 2 31 -2 14 -4
34 -7 44 -7z m-1363 -6 c0 -5 -5 -10 -11 -10 -5 0 -7 5 -4 10 3 6 8 10 11 10
2 0 4 -4 4 -10z m808 -16 c3 -24 -21 -54 -44 -54 -17 0 -18 33 -3 61 13 25 43
21 47 -7z m887 16 c-3 -5 -11 -10 -16 -10 -6 0 -7 5 -4 10 3 6 11 10 16 10 6
0 7 -4 4 -10z m-1620 -50 c13 -21 33 -41 45 -45 18 -6 20 -15 20 -81 0 -82 5
-98 49 -142 38 -37 55 -101 47 -173 -4 -35 -2 -66 5 -82 14 -30 5 -77 -15 -77
-9 0 -15 -20 -20 -62 -5 -54 -3 -66 19 -103 13 -24 27 -61 31 -84 4 -27 15
-48 31 -61 29 -23 52 -80 53 -132 0 -50 -13 -54 -44 -13 -15 19 -58 69 -97
110 -38 42 -69 84 -68 93 4 48 -5 67 -56 121 -30 32 -55 60 -55 63 0 3 18 17
40 32 22 14 40 33 40 41 0 21 -17 19 -58 -7 l-35 -22 6 60 c4 32 10 75 13 95
6 36 5 37 -44 64 -32 17 -53 36 -56 51 -7 28 13 81 48 127 27 35 34 71 16 82
-5 3 -14 23 -19 43 -7 25 -21 43 -41 55 -40 24 -40 49 0 41 30 -7 76 15 93 43
11 18 23 9 52 -37z m-669 7 c5 -14 -1 -40 -33 -154 -12 -45 -22 -63 -34 -63
-13 0 -18 13 -24 55 -6 51 -4 59 24 102 17 26 31 52 31 60 0 17 29 17 36 0z
m2309 -7 c-3 -5 -13 -10 -21 -10 -15 0 -53 -72 -54 -101 0 -24 -39 -69 -59
-69 -11 0 -21 15 -30 46 -13 44 -13 46 14 74 16 16 47 39 69 50 43 21 92 27
81 10z m185 -20 c-6 -11 -12 -20 -14 -20 -2 0 -2 9 1 20 3 11 9 20 15 20 5 0
4 -9 -2 -20z m1578 -79 c-80 -74 -76 -32 6 57 41 45 41 45 44 18 3 -21 -7 -36
-50 -75z m232 94 c0 -19 -35 -68 -71 -98 -55 -48 -173 -90 -136 -49 10 10 17
23 17 29 0 5 18 28 39 50 28 28 43 37 50 30 7 -7 22 -2 48 16 37 26 53 33 53
22z m-1746 -27 c-33 -39 -57 -56 -125 -93 -77 -40 -89 -42 -89 -15 0 26 48 50
99 50 33 0 43 5 62 33 26 37 38 47 58 47 11 0 9 -6 -5 -22z m-2267 -25 l110 2
-19 -25 c-42 -53 -107 -177 -113 -212 -4 -21 -12 -38 -18 -38 -22 0 -47 -34
-47 -66 l0 -32 -29 14 c-20 10 -31 24 -35 47 -3 18 -14 49 -24 69 -18 35 -18
36 10 129 15 52 28 105 28 119 1 23 2 23 14 8 11 -15 29 -17 123 -15z m4192 6
c17 -6 31 -14 31 -18 0 -12 -31 -51 -41 -51 -6 0 -38 -11 -72 -25 -56 -22 -66
-23 -99 -12 l-37 13 16 31 c28 59 125 89 202 62z m-4679 -14 c17 -9 30 -20 30
-26 0 -7 9 -9 21 -6 15 4 19 2 15 -10 -3 -8 -6 -21 -6 -29 0 -9 -11 -14 -29
-14 -25 0 -28 3 -23 25 6 31 -13 55 -44 55 -28 0 -31 -15 -7 -29 14 -8 16 -14
7 -38 -13 -38 -25 -35 -52 14 -21 38 -21 42 -7 57 21 20 57 20 95 1z m1559 6
l24 -7 -27 -18 c-23 -15 -27 -23 -23 -49 3 -18 -2 -48 -10 -67 -8 -19 -32 -84
-53 -145 -60 -171 -62 -176 -85 -173 -18 3 -20 11 -20 73 -1 60 2 72 21 88 31
24 116 155 109 167 -3 6 -14 10 -24 10 -31 0 -33 66 -3 101 24 29 44 33 91 20z
m2046 -10 c-3 -6 -11 -11 -17 -11 -6 0 -6 6 2 15 14 17 26 13 15 -4z m-2947
-16 c6 -14 16 -25 22 -25 7 0 9 -8 5 -20 -5 -16 -2 -20 14 -20 36 0 26 -49
-19 -98 l-39 -44 -31 19 c-34 20 -34 35 1 126 11 26 19 57 19 67 0 28 15 25
28 -5z m678 -57 c51 -57 53 -79 11 -164 -20 -41 -34 -80 -31 -89 4 -8 3 -23 0
-32 -6 -14 -8 -14 -22 5 -8 12 -21 22 -28 22 -23 0 -27 -31 -11 -87 9 -29 13
-58 10 -63 -3 -5 0 -18 6 -28 11 -17 3 -30 -64 -105 -42 -47 -79 -82 -82 -76
-4 5 -9 33 -12 63 -5 47 -2 57 24 94 47 65 85 239 63 291 -11 27 -7 38 42 138
35 71 54 101 57 88 1 -11 18 -37 37 -57z m-204 -4 c23 -83 23 -146 -2 -175
l-19 -24 -1 28 c0 43 -17 69 -37 58 -13 -7 -20 -1 -35 27 -16 32 -16 37 -3 45
8 4 15 18 15 31 0 28 37 79 54 73 6 -2 19 -30 28 -63z m1116 -20 c-3 -63 -1
-68 29 -101 l32 -34 -16 -42 c-44 -113 -96 -159 -185 -165 -35 -3 -66 -9 -69
-14 -3 -5 -13 -6 -22 -2 -14 5 -13 11 8 52 13 26 27 55 30 66 4 15 8 16 21 6
22 -19 39 1 24 30 -17 31 -7 47 35 54 42 8 43 29 1 34 -15 2 -26 9 -24 15 27
99 42 124 82 144 22 11 45 21 49 21 5 1 7 -28 5 -64z m-149 16 c-12 -21 -27
-36 -33 -33 -6 4 -6 8 2 11 7 2 19 17 27 33 9 16 18 29 21 29 3 0 -5 -18 -17
-40z m-1132 -22 c-2 -13 -4 -5 -4 17 -1 22 1 32 4 23 2 -10 2 -28 0 -40z
m3203 47 c0 -42 -78 -93 -126 -81 -32 8 -32 8 47 51 62 33 79 40 79 30z
m-2340 -26 c0 -6 -4 -7 -10 -4 -5 3 -10 11 -10 16 0 6 5 7 10 4 6 -3 10 -11
10 -16z m-1264 -24 c-13 -37 -32 -62 -40 -54 -5 5 41 89 48 89 2 0 -2 -16 -8
-35z m-517 -9 c29 6 31 5 31 -23 0 -17 9 -42 20 -56 11 -14 20 -36 20 -50 0
-28 23 -52 40 -42 7 4 9 18 5 33 -7 27 7 42 39 42 19 0 19 -1 -1 -22 -12 -13
-25 -39 -30 -58 -8 -31 -13 -35 -44 -38 -31 -3 -38 1 -62 39 -18 28 -27 53
-25 75 2 37 -24 74 -54 74 -20 0 -21 1 -12 24 4 12 11 13 24 6 10 -5 32 -7 49
-4z m4341 5 c0 -9 -52 -22 -59 -15 -4 3 37 22 52 23 4 1 7 -3 7 -8z m244 -19
c-16 -33 -94 -82 -94 -59 0 21 30 54 65 72 42 21 46 19 29 -13z m285 19 c9 -6
-1 -13 -35 -25 -57 -19 -95 -21 -112 -4 -10 10 -2 15 40 24 69 15 90 16 107 5z
m-3194 -42 c0 -20 -6 -25 -32 -27 -39 -4 -41 3 -11 35 26 28 43 25 43 -8z
m2782 14 c10 -24 -32 -53 -78 -53 -45 0 -49 11 -14 45 29 29 82 34 92 8z
m-4670 -8 c8 -22 -2 -28 -32 -21 -39 10 -30 28 18 35 4 0 10 -6 14 -14z m439
-20 c-7 -26 -30 -34 -42 -14 -4 7 4 20 17 30 28 21 33 18 25 -16z m2134 15
c-6 -11 -17 -20 -25 -20 -7 0 -16 -8 -18 -17 -4 -14 -5 -13 -6 4 -1 15 8 27
27 37 35 19 35 20 22 -4z m1540 -8 c-50 -34 -122 -107 -147 -149 -21 -37 -23
-46 -12 -59 11 -14 9 -20 -16 -40 -17 -14 -38 -32 -48 -42 -18 -16 -19 -14
-15 68 3 71 9 97 37 157 l33 72 67 -6 c36 -3 77 0 91 5 36 15 39 13 10 -6z
m-3940 -63 c0 -11 -41 -11 -59 0 -9 6 -11 18 -6 40 l7 31 29 -31 c16 -17 29
-35 29 -40z m2025 22 c6 -44 3 -53 -28 -103 -19 -29 -41 -73 -48 -97 -13 -44
-40 -71 -73 -71 -18 0 -18 5 -11 88 8 89 8 108 3 152 -3 23 3 27 59 45 34 11
65 23 69 28 15 15 22 5 29 -42z m-266 0 c7 -5 16 -38 21 -78 4 -39 12 -78 17
-88 8 -13 4 -38 -15 -94 -20 -60 -35 -86 -73 -123 -37 -38 -49 -57 -54 -91 -7
-47 6 -111 29 -142 9 -13 11 -26 5 -42 -5 -13 -11 -65 -14 -116 -7 -128 -7
-126 -47 -187 -45 -68 -82 -173 -70 -198 19 -36 21 -118 4 -143 -11 -16 -17
-51 -20 -114 -3 -67 -8 -93 -20 -102 -25 -20 -32 -15 -32 22 0 22 -16 65 -41
114 -51 98 -60 154 -30 210 16 32 18 46 11 67 -6 14 -10 58 -10 98 0 43 -5 77
-12 84 -9 9 -9 12 0 12 7 0 12 16 12 40 0 23 9 59 21 82 15 29 19 52 15 76 -7
46 8 113 41 184 26 57 26 58 7 79 l-19 21 -16 -21 c-10 -12 -22 -21 -28 -21
-24 0 -2 119 22 121 7 1 44 0 84 -1 75 -2 113 10 113 37 0 13 -9 14 -65 8 -60
-6 -65 -5 -65 13 0 11 7 25 15 32 17 14 21 54 5 48 -6 -2 -27 -25 -48 -52 -20
-27 -43 -51 -49 -54 -23 -7 -13 32 17 72 30 40 38 66 21 66 -6 0 -17 -10 -25
-22 -24 -34 -19 -17 19 71 19 43 35 84 35 90 0 28 70 40 114 20 20 -9 31 -8
63 8 47 25 45 25 62 14z m1268 -13 c-3 -8 -6 -5 -6 6 -1 11 2 17 5 13 3 -3 4
-12 1 -19z m-2423 -39 c17 -14 26 -30 26 -49 0 -30 33 -70 57 -70 14 0 43 -62
43 -93 0 -33 -24 -127 -32 -127 -4 0 -19 11 -34 25 -15 14 -37 25 -49 25 -12
0 -34 9 -48 20 -14 11 -35 20 -47 20 -35 0 -59 18 -69 55 -21 78 48 215 110
215 9 0 28 -9 43 -21z m-318 -43 c8 -32 26 -63 52 -90 22 -23 44 -60 51 -85 7
-23 15 -50 18 -58 12 -30 -107 6 -136 41 -9 10 -22 14 -37 10 -29 -7 -29 -4
-3 47 19 39 19 42 3 60 -9 10 -23 19 -31 19 -16 0 -16 13 -3 59 11 39 26 52
54 49 15 -2 23 -16 32 -52z m2758 19 c-4 -8 -11 -15 -16 -15 -6 0 -5 6 2 15 7
8 14 15 16 15 2 0 1 -7 -2 -15z m-1898 -41 c7 -28 -2 -112 -16 -149 -6 -16
-17 -25 -31 -25 -18 0 -20 4 -15 28 3 15 9 54 12 87 9 82 36 114 50 59z m992
-196 c-3 -7 -11 -13 -19 -13 -11 0 -14 -27 -14 -145 0 -80 -4 -182 -9 -227 -9
-86 5 -173 28 -173 7 0 11 -35 12 -108 0 -87 4 -116 21 -152 11 -25 30 -77 42
-116 22 -76 68 -148 100 -159 13 -4 21 -15 21 -28 0 -12 10 -64 22 -115 21
-90 22 -94 5 -156 -9 -36 -17 -84 -17 -108 0 -64 -35 -218 -69 -303 -22 -53
-28 -84 -24 -108 5 -36 -12 -107 -27 -107 -15 0 -32 28 -20 35 21 13 -1 23
-33 14 -51 -15 -60 -12 -53 15 3 14 2 27 -3 30 -13 9 -71 -24 -71 -40 0 -8 -4
-14 -10 -14 -5 0 -10 12 -10 28 0 41 -15 59 -34 43 -20 -17 -20 -34 0 -74 23
-43 30 -47 99 -47 l60 -1 -42 -39 c-48 -45 -70 -51 -69 -18 1 13 -6 24 -16 26
-12 2 -19 -6 -24 -32 -10 -56 -24 -53 -24 4 0 32 -15 96 -40 175 -41 124 -41
125 -121 209 -46 49 -88 104 -100 132 -12 27 -27 56 -34 64 -7 8 -15 55 -17
106 -3 49 -10 100 -17 111 -8 15 -8 30 -1 48 5 14 13 59 16 98 4 40 15 93 26
119 16 38 19 64 16 141 -3 87 -1 95 17 103 11 5 31 32 45 59 25 49 26 50 72
50 32 0 53 7 68 20 30 27 53 73 46 92 -5 12 -17 4 -49 -31 -24 -25 -51 -46
-60 -46 -26 0 -21 14 18 49 32 29 38 51 14 51 -5 0 -27 -16 -49 -36 -57 -52
-49 -29 11 32 37 37 50 57 45 69 -5 15 -9 15 -23 4 -15 -12 -16 -12 -10 3 3 9
0 22 -8 28 -11 9 -15 4 -20 -27 -11 -64 -12 -65 -35 -51 -28 18 -26 61 10 159
18 47 28 89 24 98 -4 9 -6 19 -6 23 1 4 -10 15 -24 24 -20 13 -24 23 -19 42 9
38 36 72 55 72 10 0 28 16 40 37 16 27 24 33 30 23 5 -8 17 -10 36 -6 16 4 38
8 50 9 11 1 27 7 36 14 37 31 144 47 136 21z m-784 -201 c20 -168 20 -162 -8
-232 -33 -84 -50 -188 -52 -330 -1 -60 -2 -116 -3 -122 -2 -22 -20 -14 -27 12
-6 24 -24 35 -24 15 0 -15 -17 -12 -35 7 -14 13 -16 30 -13 87 4 57 1 77 -14
103 l-19 32 36 90 c41 107 45 156 14 164 -14 4 -20 11 -16 20 3 9 -3 23 -14
33 -41 37 -8 136 60 178 21 14 45 38 52 55 l13 30 22 -45 c12 -25 24 -68 28
-97z m1566 -402 c0 -8 -4 -15 -10 -15 -5 0 -7 7 -4 15 4 8 8 15 10 15 2 0 4
-7 4 -15z m-1740 -317 c0 -18 -2 -20 -9 -8 -6 8 -7 18 -5 22 9 14 14 9 14 -14z
m135 -48 c3 -5 1 -10 -4 -10 -6 0 -11 5 -11 10 0 6 2 10 4 10 3 0 8 -4 11 -10z
m1619 -195 c11 -8 28 -15 38 -15 10 0 18 -2 18 -5 0 -13 -34 -70 -50 -84 -9
-9 -22 -34 -28 -57 -12 -43 -54 -76 -72 -58 -20 20 42 235 67 234 5 0 17 -7
27 -15z m148 -21 c21 -15 38 -28 38 -30 0 -1 -13 -12 -29 -23 -21 -15 -37 -19
-60 -15 -17 4 -31 11 -31 16 0 16 29 78 36 78 5 0 25 -12 46 -26z m80 -72
c-21 -21 -50 -54 -66 -75 -29 -38 -127 -94 -145 -82 -17 10 -13 57 9 93 21 35
31 38 58 21 14 -9 31 -2 92 35 41 25 78 46 82 46 4 0 -9 -17 -30 -38z m-1545
-364 c-3 -8 -6 -5 -6 6 -1 11 2 17 5 13 3 -3 4 -12 1 -19z m996 -88 c-3 -11
-9 -20 -14 -20 -5 0 -9 9 -9 20 0 11 6 20 14 20 9 0 12 -7 9 -20z m-213 -70
c-6 -11 -13 -20 -16 -20 -2 0 0 9 6 20 6 11 13 20 16 20 2 0 0 -9 -6 -20z
m-680 -5 c0 -8 -4 -15 -10 -15 -5 0 -7 7 -4 15 4 8 8 15 10 15 2 0 4 -7 4 -15z
m50 -30 c0 -5 -5 -3 -10 5 -5 8 -10 20 -10 25 0 6 5 3 10 -5 5 -8 10 -19 10
-25z m580 -85 c0 -5 -4 -10 -9 -10 -6 0 -13 5 -16 10 -3 6 1 10 9 10 9 0 16
-4 16 -10z m31 -43 c-13 -13 -15 1 -4 30 7 17 8 17 11 -1 2 -10 -1 -23 -7 -29z
m174 -50 c-5 -33 -3 -48 9 -60 15 -14 14 -16 -6 -23 -13 -4 -52 -26 -87 -50
-82 -57 -91 -56 -91 4 0 42 4 50 35 75 19 15 35 34 35 42 0 8 16 16 39 20 22
4 45 13 52 21 18 22 21 17 14 -29z m-1261 -71 c26 -63 25 -137 -4 -166 -26
-26 -34 -25 -49 7 -12 27 -3 42 25 43 6 0 18 7 25 16 12 14 10 19 -13 38 -51
42 -64 96 -23 96 19 0 28 -8 39 -34z m897 14 c23 -13 24 -28 2 -52 -15 -17
-73 -26 -73 -12 0 9 41 74 46 74 3 0 14 -5 25 -10z m-286 -70 c-3 -5 -11 -10
-16 -10 -6 0 -7 5 -4 10 3 6 11 10 16 10 6 0 7 -4 4 -10z m145 -30 c0 -5 -5
-10 -11 -10 -5 0 -7 5 -4 10 3 6 8 10 11 10 2 0 4 -4 4 -10z m52 -1 c2 -6 16
-11 31 -11 17 0 27 -6 27 -15 0 -10 5 -11 19 -4 15 8 20 5 30 -16 10 -21 8
-31 -9 -60 -12 -20 -20 -52 -20 -77 0 -46 -24 -126 -60 -196 -30 -59 -140
-241 -157 -260 -25 -27 -15 68 22 214 24 95 35 162 35 211 l0 72 57 34 c56 33
78 59 51 59 -8 0 -35 -13 -61 -30 -70 -44 -87 -38 -87 31 0 29 0 29 25 13 24
-16 26 -15 53 14 29 34 38 38 44 21z m170 -81 c-7 -7 -12 -8 -12 -2 0 6 3 14
7 17 3 4 9 5 12 2 2 -3 -1 -11 -7 -17z m-442 -25 c-1 -35 -27 -56 -57 -48
l-28 8 33 13 c18 8 35 21 38 29 8 20 14 19 14 -2z m476 -49 c-10 -14 -20 -23
-23 -21 -2 3 3 17 13 31 9 15 19 24 22 22 2 -3 -3 -17 -12 -32z m-1485 -54 c6
-26 4 -30 -10 -25 -9 4 -29 12 -44 17 -17 6 -26 16 -23 23 3 8 -1 19 -9 25 -8
6 -11 18 -8 26 10 26 86 -27 94 -66z m744 40 c14 0 24 -4 21 -9 -8 -13 4 -41
18 -41 6 0 32 11 58 25 84 45 92 28 17 -34 -47 -41 -51 -42 -69 -26 -23 21
-44 11 -89 -41 -36 -41 -51 -38 -34 6 7 18 7 32 2 36 -12 7 -11 61 1 85 9 15
15 17 30 9 10 -5 30 -10 45 -10z m365 10 c0 -5 -4 -10 -9 -10 -6 0 -13 5 -16
10 -3 6 1 10 9 10 9 0 16 -4 16 -10z m-621 -46 c-14 -18 -39 -18 -39 -1 0 23
22 38 37 25 10 -8 10 -14 2 -24z m119 -129 c-9 -29 -19 -41 -36 -43 -17 -3
-22 1 -22 21 0 30 -10 40 -25 27 -9 -7 -22 -2 -44 17 -17 15 -31 33 -31 39 0
16 83 64 112 64 13 0 30 5 38 10 13 8 15 1 18 -43 2 -29 -3 -71 -10 -92z m412
141 c0 -3 -8 -12 -17 -21 -11 -12 -16 -31 -14 -59 1 -23 -7 -80 -19 -126 -11
-47 -20 -98 -20 -114 0 -64 -77 -121 -110 -81 -19 23 -30 18 -30 -15 0 -16 -5
-30 -11 -30 -6 0 -8 7 -5 15 3 9 -1 18 -8 21 -24 9 1 61 51 102 24 20 59 49
76 64 18 14 29 30 25 34 -5 4 -17 -1 -29 -11 -17 -16 -22 -17 -29 -5 -7 12
-13 11 -33 -8 -18 -17 -35 -22 -75 -22 -56 0 -64 11 -40 50 7 10 9 23 5 27 -5
4 -12 1 -16 -6 -5 -7 -11 -9 -14 -4 -3 5 3 24 14 43 15 24 23 30 32 21 22 -22
50 -10 110 48 34 32 71 63 82 69 19 11 75 17 75 8z m-880 -51 c0 -9 -6 -12
-16 -8 -13 5 -13 7 -2 14 17 11 18 11 18 -6z m276 -55 c17 -35 40 -71 52 -81
18 -14 19 -19 8 -28 -28 -24 -83 -25 -119 -2 -26 16 -36 18 -45 9 -9 -9 -12 3
-12 51 0 46 -3 62 -12 58 -9 -2 -13 -27 -14 -71 -1 -37 -6 -72 -12 -78 -25
-25 -82 50 -82 109 1 35 67 86 103 78 12 -2 36 2 52 9 17 8 35 13 40 12 6 -1
24 -30 41 -66z m-274 -37 c3 -32 9 -66 13 -75 9 -23 -21 -35 -47 -19 -11 7
-22 10 -25 7 -3 -3 -13 5 -23 17 -11 15 -15 35 -12 64 3 34 9 44 31 52 53 19
58 15 63 -46z m1288 42 c0 -8 -4 -15 -10 -15 -5 0 -7 7 -4 15 4 8 8 15 10 15
2 0 4 -7 4 -15z m-740 -115 c0 -5 -5 -10 -11 -10 -5 0 -7 5 -4 10 3 6 8 10 11
10 2 0 4 -4 4 -10z m-142 -42 c19 -19 14 -28 -17 -28 -19 0 -39 -11 -62 -35
-19 -19 -37 -35 -40 -35 -4 0 -27 19 -52 43 l-46 43 32 -4 c18 -1 52 4 77 12
57 18 93 19 108 4z m-353 -38 c9 -27 31 -38 96 -46 30 -4 60 -10 68 -14 14 -8
8 -13 -54 -46 -11 -6 -26 -24 -34 -40 -8 -16 -19 -32 -25 -36 -18 -12 -36 -9
-36 6 0 8 -12 24 -26 35 -21 17 -41 21 -97 21 -67 0 -69 1 -54 18 9 10 27 38
40 63 20 38 29 45 63 50 21 3 42 7 46 8 4 0 10 -8 13 -19z m100 10 c3 -5 1
-10 -4 -10 -6 0 -11 5 -11 10 0 6 2 10 4 10 3 0 8 -4 11 -10z m-255 -49 c-6
-24 -17 -41 -25 -41 -12 0 -10 9 7 45 26 54 33 52 18 -4z m736 39 c21 0 17
-18 -12 -47 -24 -24 -26 -25 -38 -7 -7 11 -17 30 -21 43 -7 23 -6 24 25 17 18
-3 39 -6 46 -6z m-162 -57 c-16 -26 -18 -53 -4 -53 6 0 15 10 20 23 9 21 9 21
9 1 1 -12 10 -33 22 -48 14 -17 19 -37 17 -60 l-3 -35 -42 29 c-24 16 -43 25
-43 20 0 -14 -23 -13 -37 1 -9 9 -9 17 0 31 10 17 7 24 -27 54 -33 28 -37 36
-26 49 9 11 28 14 71 12 57 -2 58 -2 43 -24z m86 -39 c0 -16 -26 -19 -35 -4
-3 6 -4 14 0 20 8 13 35 1 35 -16z m-212 -60 c17 -24 32 -49 32 -54 0 -15
-143 -13 -159 3 -10 10 -14 9 -22 -5 -6 -10 -17 -18 -24 -18 -19 0 -20 50 -2
72 20 26 69 47 107 47 30 0 40 -7 68 -45z m241 -28 c-13 -15 -18 -4 -11 29 6
30 6 30 12 5 4 -14 3 -29 -1 -34z m186 -1 c-14 -21 -25 -45 -25 -54 0 -9 -5
-23 -10 -31 -9 -13 -11 -13 -20 0 -12 19 -13 70 -1 89 11 18 75 50 79 40 2 -4
-9 -24 -23 -44z m-865 0 c0 -18 -4 -23 -15 -19 -8 4 -15 15 -15 25 0 10 7 19
15 19 9 0 15 -9 15 -25z m128 -10 c7 -18 26 -45 42 -59 36 -30 37 -32 4 -40
-61 -16 -144 45 -144 105 0 28 2 29 43 29 40 0 44 -2 55 -35z m642 -19 c-10
-45 -5 -62 27 -97 21 -23 22 -27 9 -39 -39 -31 -106 30 -106 97 0 46 9 63 35
63 13 0 27 5 30 11 12 19 14 4 5 -35z m-554 -33 c-7 -7 -26 7 -26 19 0 6 6 6
15 -2 9 -7 13 -15 11 -17z m-161 -43 c3 -5 -1 -10 -9 -10 -9 0 -16 5 -16 10 0
6 4 10 9 10 6 0 13 -4 16 -10z m895 -330 c0 -5 -4 -10 -10 -10 -5 0 -10 5 -10
10 0 6 5 10 10 10 6 0 10 -4 10 -10z m76 -168 c-12 -11 -18 7 -10 30 l8 23 4
-23 c2 -13 1 -26 -2 -30z m-56 -199 c0 -12 -4 -25 -10 -28 -6 -4 -10 11 -10
37 0 31 3 39 10 28 5 -8 10 -25 10 -37z m137 -5 c-3 -8 -6 -5 -6 6 -1 11 2 17
5 13 3 -3 4 -12 1 -19z m-36 -341 c-8 -8 -11 -7 -11 4 0 20 13 34 18 19 3 -7
-1 -17 -7 -23z m64 -8 c-4 -18 -3 -29 4 -29 6 0 10 -16 9 -37 -1 -37 -1 -37
-5 -5 -4 33 -23 46 -23 15 0 -9 -2 -14 -5 -11 -10 10 7 108 17 102 5 -3 6 -19
3 -35z m-175 -33 c-9 -40 -16 -53 -25 -44 -3 3 2 24 11 47 20 50 26 49 14 -3z
m60 35 c0 -6 -4 -13 -10 -16 -5 -3 -10 1 -10 9 0 9 5 16 10 16 6 0 10 -4 10
-9z m5 -91 c-4 -32 -13 -81 -21 -107 -13 -46 -13 -46 -11 -12 1 20 -5 44 -12
53 -12 14 -12 16 1 11 12 -5 18 7 27 54 15 78 25 79 16 1z m42 -32 c-3 -7 -5
-2 -5 12 0 14 2 19 5 13 2 -7 2 -19 0 -25z m-120 -80 c-2 -13 -4 -3 -4 22 0
25 2 35 4 23 2 -13 2 -33 0 -45z m197 -68 c-7 -34 -8 -33 -15 23 -6 39 -5 66
4 85 11 26 12 25 15 -23 2 -27 0 -66 -4 -85z m-90 -26 c8 -22 -4 -40 -15 -23
-11 18 -11 39 0 39 5 0 12 -7 15 -16z m164 -1 c-2 -9 -13 -17 -27 -18 l-23 -2
23 18 c30 23 31 23 27 2z m-218 -58 c0 -27 -5 -57 -11 -65 -7 -11 -8 2 -3 43
4 36 3 57 -4 57 -12 0 -22 -24 -22 -56 0 -15 -6 -24 -16 -24 -13 0 -15 7 -10
31 3 17 6 40 6 50 0 14 7 18 30 16 29 -2 30 -4 30 -52z m100 15 c0 -31 -3 -38
-15 -34 -10 4 -13 14 -9 33 14 54 24 55 24 1z m80 -50 c4 -3 4 -23 0 -45 -11
-63 -28 -5 -20 70 3 28 3 29 7 5 3 -14 9 -27 13 -30z m-60 -17 c0 -3 -5 -35
-11 -71 -8 -43 -15 -60 -21 -54 -7 7 -7 21 1 43 6 17 11 45 11 60 0 16 5 29
10 29 6 0 10 -3 10 -7z m118 -193 c0 -53 -12 -139 -17 -120 0 3 -3 77 -5 165
-3 155 -3 158 10 90 7 -38 13 -99 12 -135z m-281 108 c-3 -8 -6 -5 -6 6 -1 11
2 17 5 13 3 -3 4 -12 1 -19z m44 -5 c-12 -20 -14 -14 -5 12 4 9 9 14 11 11 3
-2 0 -13 -6 -23z m49 -28 c0 -14 7 -28 15 -31 20 -8 19 -34 0 -34 -15 0 -19
-7 -45 -76 -8 -21 -20 -34 -36 -37 -23 -4 -24 -2 -19 24 9 40 -4 58 -21 28
-13 -24 -13 -24 -14 -2 0 12 9 30 19 40 11 10 23 36 27 58 5 31 9 35 14 20 6
-18 8 -17 25 8 22 34 35 35 35 2z m140 -47 c0 -29 -5 -60 -10 -68 -8 -11 -10
-8 -8 15 4 42 -20 39 -43 -5 -20 -37 -23 -29 -13 44 5 34 11 46 20 42 8 -3 20
1 26 9 22 25 28 17 28 -37z"/>
<path d="M3967 5304 c-16 -16 -6 -35 16 -32 12 2 22 10 22 18 0 16 -26 25 -38
14z"/>
<path d="M2875 2204 c-29 -32 -32 -46 -7 -37 25 9 52 34 52 50 0 21 -19 15
-45 -13z"/>
<path d="M3050 263 c-6 -15 -12 -33 -14 -39 -2 -6 -1 -17 4 -24 9 -15 23 6 34
52 8 37 -12 46 -24 11z"/>
<path d="M3524 6858 c-7 -10 12 -35 37 -49 18 -9 49 -3 49 11 0 13 -80 48 -86
38z"/>
<path d="M2554 6316 c-8 -22 3 -49 19 -43 6 2 12 14 12 27 0 27 -22 39 -31 16z"/>
<path d="M2122 6234 c3 -44 21 -53 26 -13 2 15 -4 31 -13 39 -15 12 -16 10
-13 -26z"/>
<path d="M2786 6209 c-9 -13 -16 -29 -16 -36 0 -21 18 -15 36 13 23 34 4 56
-20 23z"/>
<path d="M3960 3255 c0 -42 2 -46 16 -35 18 15 15 71 -3 78 -9 2 -13 -10 -13
-43z"/>
<path d="M2565 2879 c-20 -33 -35 -63 -32 -65 18 -18 87 62 87 100 0 34 -20
22 -55 -35z"/>
<path d="M2422 1785 c3 -37 1 -40 -24 -43 -29 -3 -36 6 -17 25 7 7 7 13 1 17
-5 3 -15 -1 -22 -9 -7 -8 -27 -15 -45 -15 -27 0 -34 -5 -39 -25 -4 -14 -17
-32 -31 -41 -14 -9 -25 -25 -25 -35 0 -28 -26 -34 -56 -14 -25 16 -54 15 -54
-3 0 -28 120 -57 135 -32 12 19 63 11 70 -10 17 -54 149 -67 214 -21 43 31 28
47 -25 27 -61 -23 -91 -27 -118 -16 -48 18 -27 28 64 32 68 2 93 7 107 20 9
10 14 20 11 23 -3 3 -39 0 -81 -6 -83 -12 -147 -6 -147 15 0 27 31 38 127 43
102 6 196 34 177 53 -6 6 -22 6 -44 0 -19 -6 -54 -10 -78 -10 -36 0 -48 6 -73
33 l-31 32 4 -40z m-110 -127 c-6 -6 -16 -7 -23 -3 -9 6 -7 12 7 22 21 15 34
-1 16 -19z"/>
</g>
</svg>
